<?xml version="1.0" encoding="UTF-8"?>
<svg version="1.1" xmlns="http://www.w3.org/2000/svg" width="500" height="500">
<path d="M0 0 C1.44826172 1.06541016 1.44826172 1.06541016 2.92578125 2.15234375 C6.23601897 4.64954063 8.68316382 6.52474574 11 10 C10.7279796 13.72814098 8.8282621 15.54607302 6.25390625 18.109375 C5.49916016 18.86347656 4.74441406 19.61757812 3.96679688 20.39453125 C3.17337891 21.17183594 2.37996094 21.94914062 1.5625 22.75 C0.77294922 23.54277344 -0.01660156 24.33554688 -0.83007812 25.15234375 C-6.73309085 31 -6.73309085 31 -9 31 C-9.66 32.32 -10.32 33.64 -11 35 C-11.66 35 -12.32 35 -13 35 C-13.66 36.32 -14.32 37.64 -15 39 C-15.66 39 -16.32 39 -17 39 C-17.33 39.99 -17.66 40.98 -18 42 C-20.21875 42.74609375 -20.21875 42.74609375 -23 43 C-25.21875 41.41015625 -25.21875 41.41015625 -27.5 39.0625 C-36.61575902 30.37889548 -47.06760067 24.84165052 -59 21 C-60.39992188 20.52046875 -60.39992188 20.52046875 -61.828125 20.03125 C-80.34974522 14.68276074 -101.74149207 16.6057005 -118.8125 25.25 C-136.24133461 35.27959931 -147.75546648 49.66585885 -153.30859375 68.96484375 C-156.83093588 84.42732869 -155.73500776 100.29324038 -150 115 C-149.84144531 113.90042969 -149.68289062 112.80085937 -149.51953125 111.66796875 C-148.14604942 102.73324664 -146.39134446 95.00280535 -142 87 C-141.50757813 86.02675781 -141.01515625 85.05351562 -140.5078125 84.05078125 C-129.94569092 64.31629093 -110.35099516 53.15920416 -89.6171875 46.5625 C-81.87057915 44.23539216 -74.02316397 42.48180577 -66.0625 41.0625 C-65.2988916 40.92166992 -64.5352832 40.78083984 -63.74853516 40.63574219 C-58.36309848 39.75793435 -58.36309848 39.75793435 -55 42 C-55.43242337 44.81075189 -56.16633286 46.22732157 -57.875 48.5625 C-64.69253484 58.51708891 -64.54865393 73.06936289 -65.4609375 84.75390625 C-65.58069946 86.25679199 -65.58069946 86.25679199 -65.70288086 87.79003906 C-65.85488597 89.74823189 -65.99695999 91.70723124 -66.12719727 93.66699219 C-67.3948346 110.29909265 -73.74324349 126.13055554 -86.5703125 137.22265625 C-94.57090755 143.31997584 -103.22727697 147.61111215 -113 150 C-112.15445197 152.22691303 -112.15445197 152.22691303 -109.69140625 153 C-87.73470205 160.01737363 -63.62232784 159.9443359 -42.38671875 150.37109375 C-37.91841617 148.08145469 -37.91841617 148.08145469 -34 145 C-33.91134792 142.1156618 -33.88478704 139.25537842 -33.90234375 136.37109375 C-33.9037587 135.50686295 -33.90517365 134.64263214 -33.90663147 133.75221252 C-33.91224761 130.98060708 -33.92480281 128.2090812 -33.9375 125.4375 C-33.94251292 123.5631522 -33.94707619 121.68880315 -33.95117188 119.81445312 C-33.96222228 115.20960456 -33.9794977 110.60481579 -34 106 C-35.08269165 105.96241577 -35.08269165 105.96241577 -36.18725586 105.92407227 C-39.437535 105.80848698 -42.68749688 105.68559226 -45.9375 105.5625 C-47.07380859 105.52318359 -48.21011719 105.48386719 -49.38085938 105.44335938 C-50.46044922 105.40146484 -51.54003906 105.35957031 -52.65234375 105.31640625 C-54.15269165 105.26141968 -54.15269165 105.26141968 -55.68334961 105.20532227 C-58 105 -58 105 -59 104 C-58.95798366 102.11361793 -58.84169652 100.2288193 -58.6953125 98.34765625 C-58.60636719 97.17783203 -58.51742187 96.00800781 -58.42578125 94.80273438 C-58.32652344 93.56845703 -58.22726562 92.33417969 -58.125 91.0625 C-58.03347656 89.86302734 -57.94195312 88.66355469 -57.84765625 87.42773438 C-57.57828881 83.950618 -57.29025531 80.47542544 -57 77 C-56.88930176 75.49542236 -56.88930176 75.49542236 -56.77636719 73.96044922 C-56.66663574 72.61684326 -56.66663574 72.61684326 -56.5546875 71.24609375 C-56.49522949 70.46806396 -56.43577148 69.69003418 -56.37451172 68.88842773 C-56 67 -56 67 -54 65 C-51.22264099 64.75276184 -51.22264099 64.75276184 -47.63842773 64.75708008 C-46.98625275 64.75518173 -46.33407776 64.75328339 -45.66213989 64.75132751 C-43.50250294 64.74761721 -41.3432009 64.75832628 -39.18359375 64.76953125 C-37.68669169 64.77072291 -36.18978887 64.77117624 -34.69288635 64.7709198 C-31.55473149 64.77248504 -28.41669064 64.78077849 -25.27856445 64.79418945 C-21.24756269 64.81119403 -17.21668616 64.81500341 -13.18565273 64.81424427 C-10.09482112 64.81451562 -7.00401711 64.81999085 -3.91319466 64.82724571 C-2.42637402 64.83043697 -0.93955024 64.83240085 0.54727364 64.83313942 C2.62084457 64.83529735 4.69428019 64.8440291 6.76782227 64.85473633 C7.94981705 64.85854813 9.13181183 64.86235992 10.34962463 64.86628723 C13 65 13 65 14 66 C14.12203817 69.13930672 14.17867394 72.25697086 14.19287109 75.39746094 C14.20513733 76.87792908 14.20513733 76.87792908 14.21765137 78.38830566 C14.24256189 81.6703225 14.25903643 84.9522959 14.2734375 88.234375 C14.27876118 89.35253853 14.28408485 90.47070206 14.28956985 91.62274933 C14.3163269 97.54178686 14.33569302 103.46080312 14.35009766 109.37988281 C14.36674547 115.50140573 14.41151763 121.62239026 14.4624691 127.74370956 C14.49609088 132.44314203 14.50766965 137.14244601 14.51332474 141.84198761 C14.52005197 144.09867717 14.53531194 146.35535786 14.55921555 148.61193085 C14.59075827 151.77005598 14.59091972 154.92672028 14.58349609 158.08496094 C14.59990143 159.01918884 14.61630676 159.95341675 14.63320923 160.91595459 C14.58950203 165.45388307 14.51172799 167.35798286 11.6000061 171.01104736 C10.74200409 171.66740173 9.88400208 172.3237561 9 173 C7.91912109 173.86044922 7.91912109 173.86044922 6.81640625 174.73828125 C-13.36991448 188.8372193 -35.05159242 197.40812867 -59.4375 200.8125 C-60.76793335 200.99848755 -60.76793335 200.99848755 -62.12524414 201.18823242 C-79.10464116 203.33458005 -96.90721137 202.33479545 -111.3125 192.1875 C-120.77621414 184.4748681 -126.44613452 175.18153799 -128 163 C-130.11722724 136.14464397 -119.16034424 111.64308651 -106 89 C-106.78375 89.99 -107.5675 90.98 -108.375 92 C-109.24125 92.99 -110.1075 93.98 -111 95 C-111.66 95 -112.32 95 -113 95 C-113.23203125 95.50789063 -113.4640625 96.01578125 -113.703125 96.5390625 C-115.13110267 99.24877915 -116.75842508 101.76274418 -118.42724609 104.32861328 C-131.28583932 124.22169715 -138.74883614 146.59338597 -135.5390625 170.421875 C-134.09038486 176.8642297 -131.5084676 182.49943082 -128.40234375 188.30859375 C-127.08949328 190.8282427 -126.00684757 193.34558368 -125 196 C-125.66 196.33 -126.32 196.66 -127 197 C-129.78302567 195.98605301 -132.4300709 194.90292027 -135.125 193.6875 C-135.9288916 193.32503174 -136.7327832 192.96256348 -137.56103516 192.58911133 C-151.11407372 186.31041531 -162.40475408 178.4741574 -173 168 C-173.86109375 167.21109375 -174.7221875 166.4221875 -175.609375 165.609375 C-193.74324295 148.60183425 -205.02071092 123.01388187 -206.12475586 98.19555664 C-207.00808073 62.26542332 -199.1502921 34.66644446 -174 8 C-173.37609375 7.31164062 -172.7521875 6.62328125 -172.109375 5.9140625 C-154.38915195 -12.92298134 -128.01717316 -22.28759557 -103 -26 C-102.13503906 -26.13148438 -101.27007812 -26.26296875 -100.37890625 -26.3984375 C-64.83663061 -30.83372991 -28.52256149 -21.32014303 0 0 Z " fill="#328F67" transform="translate(345,161)"/>
<path d="M0 0 C1.18279037 0.00142502 2.36558075 0.00285004 3.58421326 0.00431824 C4.23638824 0.00241989 4.88856323 0.00052155 5.5605011 -0.00143433 C7.72013805 -0.00514463 9.87944009 0.00556444 12.03904724 0.01676941 C13.5359493 0.01796106 15.03285212 0.0184144 16.52975464 0.01815796 C19.6679095 0.0197232 22.80595035 0.02801665 25.94407654 0.04142761 C29.9750783 0.05843219 34.00595483 0.06224157 38.03698826 0.06148243 C41.12781987 0.06175378 44.21862388 0.06722901 47.30944633 0.07448387 C48.79626697 0.07767513 50.28309075 0.07963901 51.76991463 0.08037758 C53.84348556 0.08253551 55.91692118 0.09126726 57.99046326 0.10197449 C59.17245804 0.10578629 60.35445282 0.10959808 61.57226562 0.11352539 C64.22264099 0.24723816 64.22264099 0.24723816 65.22264099 1.24723816 C65.34467916 4.38654488 65.40131494 7.50420902 65.41551208 10.6446991 C65.42777832 12.12516724 65.42777832 12.12516724 65.44029236 13.63554382 C65.46520288 16.91756066 65.48167742 20.19953406 65.49607849 23.48161316 C65.50140217 24.59977669 65.50672585 25.71794022 65.51221085 26.86998749 C65.53896789 32.78902502 65.55833401 38.70804128 65.57273865 44.62712097 C65.58938646 50.74864389 65.63415862 56.86962842 65.68511009 62.99094772 C65.71873188 67.69038019 65.73031064 72.38968417 65.73596573 77.08922577 C65.74269296 79.34591533 65.75795293 81.60259602 65.78185654 83.85916901 C65.81339926 87.01729414 65.81356071 90.17395844 65.80613708 93.3321991 C65.82254242 94.266427 65.83894775 95.20065491 65.85585022 96.16319275 C65.81214303 100.70112123 65.73436898 102.60522102 62.82264709 106.25828552 C61.96464508 106.91463989 61.10664307 107.57099426 60.22264099 108.24723816 C59.50205505 108.82087097 58.78146912 109.39450378 58.03904724 109.98551941 C37.85272651 124.08445746 16.17104857 132.65536683 -8.21485901 136.05973816 C-9.54529236 136.24572571 -9.54529236 136.24572571 -10.90260315 136.43547058 C-27.88200017 138.58181821 -45.68457038 137.58203361 -60.08985901 127.43473816 C-64.15865357 124.16776056 -67.49654693 120.28673804 -70.77735901 116.24723816 C-70.28235901 115.25723816 -70.28235901 115.25723816 -69.77735901 114.24723816 C-69.11735901 114.57723816 -68.45735901 114.90723816 -67.77735901 115.24723816 C-67.44735901 116.23723816 -67.11735901 117.22723816 -66.77735901 118.24723816 C-66.11735901 118.57723816 -65.45735901 118.90723816 -64.77735901 119.24723816 C-65.10735901 116.93723816 -65.43735901 114.62723816 -65.77735901 112.24723816 C-66.43735901 112.24723816 -67.09735901 112.24723816 -67.77735901 112.24723816 C-67.77735901 111.58723816 -67.77735901 110.92723816 -67.77735901 110.24723816 C-68.43735901 110.24723816 -69.09735901 110.24723816 -69.77735901 110.24723816 C-70.94042344 106.69773782 -70.70100949 103.68899868 -70.33985901 99.99723816 C-70.23802307 98.91958191 -70.13618713 97.84192566 -70.03126526 96.73161316 C-69.9474762 95.91176941 -69.86368713 95.09192566 -69.77735901 94.24723816 C-67.46735901 94.24723816 -65.15735901 94.24723816 -62.77735901 94.24723816 C-63.38174696 90.86266561 -64.70737265 88.94722036 -66.77735901 86.24723816 C-66.77735901 85.58723816 -66.77735901 84.92723816 -66.77735901 84.24723816 C-62.65678441 82.24938381 -59.32541536 82.06888301 -54.77735901 82.24723816 C-55.37548401 82.53598816 -55.97360901 82.82473816 -56.58985901 83.12223816 C-58.97063693 84.29465842 -58.97063693 84.29465842 -61.77735901 86.24723816 C-41.44446297 96.36457291 -17.81739603 94.35007059 3.30857849 87.85661316 C4.61449116 87.32314421 5.91905445 86.78636629 7.22264099 86.24723816 C8.10645447 85.97959656 8.99026794 85.71195496 9.90086365 85.436203 C13.22780136 84.08741265 14.9552244 83.06036071 17.22264099 80.24723816 C18.9321772 73.84886903 18.15429199 66.91258326 17.84764099 60.37223816 C17.79745322 58.520795 17.7518305 56.66922209 17.71092224 54.81755066 C17.60097557 50.29090392 17.42861791 45.77049131 17.22264099 41.24723816 C16.13994934 41.20965393 16.13994934 41.20965393 15.03538513 41.17131042 C11.785106 41.05572514 8.53514411 40.93283042 5.28514099 40.80973816 C4.1488324 40.77042175 3.0125238 40.73110535 1.84178162 40.69059753 C0.76219177 40.648703 -0.31739807 40.60680847 -1.42970276 40.56364441 C-2.42993469 40.52698669 -3.43016663 40.49032898 -4.46070862 40.45256042 C-6.77735901 40.24723816 -6.77735901 40.24723816 -7.77735901 39.24723816 C-7.73534267 37.36085608 -7.61905553 35.47605746 -7.47267151 33.59489441 C-7.33925354 31.84015808 -7.33925354 31.84015808 -7.20314026 30.04997253 C-7.10388245 28.81569519 -7.00462463 27.58141785 -6.90235901 26.30973816 C-6.76507385 24.51052917 -6.76507385 24.51052917 -6.62501526 22.67497253 C-6.35564781 19.19785616 -6.06761432 15.7226636 -5.77735901 12.24723816 C-5.70356018 11.2441864 -5.62976135 10.24113464 -5.5537262 9.20768738 C-5.44399475 7.86408142 -5.44399475 7.86408142 -5.33204651 6.49333191 C-5.2725885 5.71530212 -5.21313049 4.93727234 -5.15187073 4.13566589 C-4.49832653 0.84025237 -3.22361265 0.28696328 0 0 Z " fill="#6DB14D" transform="translate(293.77735900878906,225.7527618408203)"/>
<path d="M0 0 C-0.43242337 2.81075189 -1.16633286 4.22732157 -2.875 6.5625 C-9.69253484 16.51708891 -9.54865393 31.06936289 -10.4609375 42.75390625 C-10.54077881 43.75583008 -10.62062012 44.75775391 -10.70288086 45.79003906 C-10.85488597 47.74823189 -10.99695999 49.70723124 -11.12719727 51.66699219 C-12.31382359 67.23618345 -17.91037273 81.73078362 -29 93 C-31.2421875 94.2734375 -31.2421875 94.2734375 -33 95 C-34 88.375 -34 88.375 -34 85 C-31.36 85 -28.72 85 -26 85 C-26.12375 83.7625 -26.2475 82.525 -26.375 81.25 C-26.38671875 79.01953125 -26.38671875 79.01953125 -26 77 C-23.1875 74.9375 -23.1875 74.9375 -20 73 C-18.63565762 70.72092808 -17.88968191 68.52856965 -17 66 C-16.67 65.34 -16.34 64.68 -16 64 C-16.66 64 -17.32 64 -18 64 C-18.05451714 61.95863605 -18.09302485 59.91684144 -18.125 57.875 C-18.14820313 56.73804688 -18.17140625 55.60109375 -18.1953125 54.4296875 C-17.99577097 50.92573827 -17.16889129 48.28750676 -16 45 C-15.92477031 42.66787973 -15.90674124 40.3314689 -16 38 C-16.66 38 -17.32 38 -18 38 C-17.67 36.35 -17.34 34.7 -17 33 C-16.34 33.66 -15.68 34.32 -15 35 C-14.34 30.38 -13.68 25.76 -13 21 C-12.34 21 -11.68 21 -11 21 C-10.67 15.72 -10.34 10.44 -10 5 C-18.04589033 5 -23.73058473 6.41849309 -30.6875 10.625 C-34.26566891 12.75255989 -37.70790783 13.13802022 -41.8125 13.5 C-45.90054587 13.88155095 -49.9413811 14.38238408 -54 15 C-54 15.66 -54 16.32 -54 17 C-56.33214148 18.20628008 -58.49642139 19.1654738 -61 20 C-61.309375 20.639375 -61.61875 21.27875 -61.9375 21.9375 C-63.25054342 24.486349 -64.48374915 24.78245927 -67 26 C-67.33 26.99 -67.66 27.98 -68 29 C-68.99 29.928125 -68.99 29.928125 -70 30.875 C-72.31223002 33.3317444 -72.49777015 34.73550595 -73 38 C-73.66 38.99 -74.32 39.98 -75 41 C-75 42.32 -75 43.64 -75 45 C-78.63 45 -82.26 45 -86 45 C-84.57620207 38.83020898 -81.0327386 34.69818056 -77 30 C-76.42378906 29.32710937 -75.84757813 28.65421875 -75.25390625 27.9609375 C-59.03731744 10.45399647 -34.30142447 3.38461915 -11.625 -0.9375 C-10.56357788 -1.14874512 -10.56357788 -1.14874512 -9.48071289 -1.36425781 C-5.68321687 -2.02855362 -3.23414387 -2.26390071 0 0 Z " fill="#9CC364" transform="translate(290,203)"/>
<path d="M0 0 C1.18279037 0.00142502 2.36558075 0.00285004 3.58421326 0.00431824 C4.23638824 0.00241989 4.88856323 0.00052155 5.5605011 -0.00143433 C7.72013805 -0.00514463 9.87944009 0.00556444 12.03904724 0.01676941 C13.5359493 0.01796106 15.03285212 0.0184144 16.52975464 0.01815796 C19.6679095 0.0197232 22.80595035 0.02801665 25.94407654 0.04142761 C29.9750783 0.05843219 34.00595483 0.06224157 38.03698826 0.06148243 C41.12781987 0.06175378 44.21862388 0.06722901 47.30944633 0.07448387 C48.79626697 0.07767513 50.28309075 0.07963901 51.76991463 0.08037758 C53.84348556 0.08253551 55.91692118 0.09126726 57.99046326 0.10197449 C59.17245804 0.10578629 60.35445282 0.10959808 61.57226562 0.11352539 C64.22264099 0.24723816 64.22264099 0.24723816 65.22264099 1.24723816 C65.34467916 4.38654488 65.40131494 7.50420902 65.41551208 10.6446991 C65.42777832 12.12516724 65.42777832 12.12516724 65.44029236 13.63554382 C65.46520288 16.91756066 65.48167742 20.19953406 65.49607849 23.48161316 C65.50140217 24.59977669 65.50672585 25.71794022 65.51221085 26.86998749 C65.53896789 32.78902502 65.55833401 38.70804128 65.57273865 44.62712097 C65.58938646 50.74864389 65.63415862 56.86962842 65.68511009 62.99094772 C65.71873188 67.69038019 65.73031064 72.38968417 65.73596573 77.08922577 C65.74269296 79.34591533 65.75795293 81.60259602 65.78185654 83.85916901 C65.81339926 87.01729414 65.81356071 90.17395844 65.80613708 93.3321991 C65.82254242 94.266427 65.83894775 95.20065491 65.85585022 96.16319275 C65.81217854 100.69743375 65.73406422 102.60489543 62.82704163 106.25608826 C61.96758942 106.91316772 61.10813721 107.57024719 60.22264099 108.24723816 C59.1069574 109.12508972 59.1069574 109.12508972 57.96873474 110.02067566 C40.34459221 122.24723816 40.34459221 122.24723816 36.22264099 122.24723816 C36.55264099 120.59723816 36.88264099 118.94723816 37.22264099 117.24723816 C38.87264099 117.24723816 40.52264099 117.24723816 42.22264099 117.24723816 C42.22264099 116.58723816 42.22264099 115.92723816 42.22264099 115.24723816 C43.54264099 115.24723816 44.86264099 115.24723816 46.22264099 115.24723816 C46.22264099 114.58723816 46.22264099 113.92723816 46.22264099 113.24723816 C49.19264099 112.25723816 49.19264099 112.25723816 52.22264099 111.24723816 C51.56264099 110.25723816 50.90264099 109.26723816 50.22264099 108.24723816 C50.97264099 106.30973816 50.97264099 106.30973816 52.22264099 104.24723816 C54.22264099 103.55973816 54.22264099 103.55973816 56.22264099 103.24723816 C56.88264099 102.91723816 57.54264099 102.58723816 58.22264099 102.24723816 C58.22264099 99.60723816 58.22264099 96.96723816 58.22264099 94.24723816 C58.88264099 94.24723816 59.54264099 94.24723816 60.22264099 94.24723816 C60.22264099 90.61723816 60.22264099 86.98723816 60.22264099 83.24723816 C60.88264099 83.24723816 61.54264099 83.24723816 62.22264099 83.24723816 C62.22264099 57.17723816 62.22264099 31.10723816 62.22264099 4.24723816 C40.77264099 3.91723816 19.32264099 3.58723816 -2.77735901 3.24723816 C-3.76735901 15.12723816 -4.75735901 27.00723816 -5.77735901 39.24723816 C2.47264099 39.24723816 10.72264099 39.24723816 19.22264099 39.24723816 C19.22264099 52.77723816 19.22264099 66.30723816 19.22264099 80.24723816 C18.89264099 80.24723816 18.56264099 80.24723816 18.22264099 80.24723816 C17.72764099 60.94223816 17.72764099 60.94223816 17.22264099 41.24723816 C9.36943355 40.9579601 9.36943355 40.9579601 1.51585388 40.67912292 C0.05780334 40.62196106 0.05780334 40.62196106 -1.42970276 40.56364441 C-2.42993469 40.52698669 -3.43016663 40.49032898 -4.46070862 40.45256042 C-6.77735901 40.24723816 -6.77735901 40.24723816 -7.77735901 39.24723816 C-7.73534267 37.36085608 -7.61905553 35.47605746 -7.47267151 33.59489441 C-7.3837262 32.42507019 -7.29478088 31.25524597 -7.20314026 30.04997253 C-7.10388245 28.81569519 -7.00462463 27.58141785 -6.90235901 26.30973816 C-6.81083557 25.1102655 -6.71931213 23.91079285 -6.62501526 22.67497253 C-6.35564781 19.19785616 -6.06761432 15.7226636 -5.77735901 12.24723816 C-5.66666077 10.74266052 -5.66666077 10.74266052 -5.5537262 9.20768738 C-5.4805719 8.31195007 -5.4074176 7.41621277 -5.33204651 6.49333191 C-5.2725885 5.71530212 -5.21313049 4.93727234 -5.15187073 4.13566589 C-4.49832653 0.84025237 -3.22361265 0.28696328 0 0 Z " fill="#BFD898" transform="translate(293.77735900878906,225.7527618408203)"/>
<path d="M0 0 C0.8971875 0.5259375 0.8971875 0.5259375 1.8125 1.0625 C1.8125 2.3825 1.8125 3.7025 1.8125 5.0625 C0.4925 4.7325 -0.8275 4.4025 -2.1875 4.0625 C-2.8475 5.3825 -3.5075 6.7025 -4.1875 8.0625 C-1.2175 8.5575 -1.2175 8.5575 1.8125 9.0625 C1.4825 10.0525 1.1525 11.0425 0.8125 12.0625 C-1.1675 12.3925 -3.1475 12.7225 -5.1875 13.0625 C-5.87457555 15.55314888 -6.1875 17.44136292 -6.1875 20.0625 C-7.7653125 20.0934375 -7.7653125 20.0934375 -9.375 20.125 C-13.47355431 21.13284122 -13.77910918 21.35111056 -15.9375 24.625 C-16.30359375 25.26566406 -16.6696875 25.90632813 -17.046875 26.56640625 C-17.42328125 27.06011719 -17.7996875 27.55382812 -18.1875 28.0625 C-19.1775 28.0625 -20.1675 28.0625 -21.1875 28.0625 C-21.67887529 30.51502798 -22.16883867 32.96778197 -22.65234375 35.421875 C-23.75281961 40.98791819 -24.93778356 46.52804149 -26.1875 52.0625 C-26.8475 52.0625 -27.5075 52.0625 -28.1875 52.0625 C-28.5175 51.4025 -28.8475 50.7425 -29.1875 50.0625 C-29.8475 50.0625 -30.5075 50.0625 -31.1875 50.0625 C-30.63210846 45.86223124 -29.66962315 42.49938907 -27.82421875 38.69140625 C-27.11168945 37.21124023 -27.11168945 37.21124023 -26.38476562 35.70117188 C-25.88654297 34.68603516 -25.38832031 33.67089844 -24.875 32.625 C-24.38837891 31.61373047 -23.90175781 30.60246094 -23.40039062 29.56054688 C-20.83986474 24.27752376 -18.1787981 19.11431222 -15.1875 14.0625 C-15.97125 15.0525 -16.755 16.0425 -17.5625 17.0625 C-18.42875 18.0525 -19.295 19.0425 -20.1875 20.0625 C-20.8475 20.0625 -21.5075 20.0625 -22.1875 20.0625 C-22.24149736 18.60457116 -22.28029177 17.14607288 -22.3125 15.6875 C-22.33570313 14.87539062 -22.35890625 14.06328125 -22.3828125 13.2265625 C-22.1875 11.0625 -22.1875 11.0625 -20.1875 9.0625 C-19.8575 9.7225 -19.5275 10.3825 -19.1875 11.0625 C-17.47865995 9.43910195 -15.81303283 7.76930947 -14.1875 6.0625 C-14.1875 5.4025 -14.1875 4.7425 -14.1875 4.0625 C-11.5475 4.0625 -8.9075 4.0625 -6.1875 4.0625 C-6.084375 3.423125 -5.98125 2.78375 -5.875 2.125 C-5.648125 1.444375 -5.42125 0.76375 -5.1875 0.0625 C-2.1875 -0.9375 -2.1875 -0.9375 0 0 Z " fill="#94BF92" transform="translate(254.1875,235.9375)"/>
<path d="M0 0 C0 0.66 0 1.32 0 2 C-0.94875 1.95875 -1.8975 1.9175 -2.875 1.875 C-6.10244856 1.65026182 -6.10244856 1.65026182 -8 4 C-10.54631996 4.28035532 -13.00930887 4.46530331 -15.5625 4.5625 C-20.15099227 4.35710009 -20.15099227 4.35710009 -24 6 C-28.17838739 6.29908457 -32.24687872 6.12552021 -36.375 5.4375 C-39.09910122 4.77309612 -39.09910122 4.77309612 -42 6 C-44.54760941 6.06704235 -47.07750612 5.99815462 -49.625 5.9375 C-52.1512134 5.88864801 -52.1512134 5.88864801 -55 7 C-55.66 6.67 -56.32 6.34 -57 6 C-58.66619446 5.9603287 -60.33391013 5.95615553 -62 6 C-62 5.34 -62 4.68 -62 4 C-60.69211261 3.50838275 -59.37828093 3.03258242 -58.0625 2.5625 C-57.33160156 2.29566406 -56.60070312 2.02882812 -55.84765625 1.75390625 C-38.15725574 -2.92956055 -18.00901674 -1.02822066 0 0 Z " fill="#148E73" transform="translate(280,138)"/>
<path d="M0 0 C0.33 0 0.66 0 1 0 C1.08238677 8.6109435 0.950616 17.20695463 0.5300293 25.80810547 C0.46852566 27.18195715 0.41929549 28.55641518 0.38256836 29.93115234 C-0.02774312 44.84091222 -5.21284111 57.23508267 -16 68 C-18.23828125 69.265625 -18.23828125 69.265625 -20 70 C-21 63.375 -21 63.375 -21 60 C-18.36 60 -15.72 60 -13 60 C-13.12375 58.7625 -13.2475 57.525 -13.375 56.25 C-13.38671875 54.01953125 -13.38671875 54.01953125 -13 52 C-10.1875 49.9375 -10.1875 49.9375 -7 48 C-5.63565762 45.72092808 -4.88968191 43.52856965 -4 41 C-3.67 40.34 -3.34 39.68 -3 39 C-3.66 39 -4.32 39 -5 39 C-5.05451714 36.95863605 -5.09302485 34.91684144 -5.125 32.875 C-5.14820313 31.73804688 -5.17140625 30.60109375 -5.1953125 29.4296875 C-4.99577097 25.92573827 -4.16889129 23.28750676 -3 20 C-2.92477031 17.66787973 -2.90674124 15.3314689 -3 13 C-3.66 13 -4.32 13 -5 13 C-4.67 11.35 -4.34 9.7 -4 8 C-3.34 8.66 -2.68 9.32 -2 10 C-1.34 6.7 -0.68 3.4 0 0 Z " fill="#82B849" transform="translate(277,228)"/>
<path d="M0 0 C0 0.33 0 0.66 0 1 C-4.66666667 1 -9.33333333 1 -14 1 C-14 1.99 -14 2.98 -14 4 C-16.51632435 4.89868727 -17.60732308 5.1616905 -20.125 4.125 C-21.053125 3.568125 -21.053125 3.568125 -22 3 C-22.66 2.67 -23.32 2.34 -24 2 C-24 0.68 -24 -0.64 -24 -2 C-43.0769182 -2.16053854 -61.99072639 -1.63035741 -81 0 C-77.5504732 -2.29968453 -74.43369825 -2.86416654 -70.4375 -3.5625 C-69.71296631 -3.69180908 -68.98843262 -3.82111816 -68.24194336 -3.9543457 C-45.09593161 -7.99243214 -22.61094375 -5.89601824 0 0 Z M-24 3 C-22 4 -22 4 -22 4 Z " fill="#5EA392" transform="translate(304,140)"/>
<path d="M0 0 C4.48404564 -0.024759 8.96805481 -0.04288799 13.45214844 -0.05493164 C14.97689507 -0.05995365 16.50163691 -0.0667725 18.02636719 -0.07543945 C20.22071519 -0.08759849 22.4149994 -0.09324968 24.609375 -0.09765625 C26.5888916 -0.10551147 26.5888916 -0.10551147 28.60839844 -0.11352539 C32 0 32 0 36 1 C36 25.42 36 49.84 36 75 C35.67 75 35.34 75 35 75 C34.505 67.575 34.505 67.575 34 60 C33.67 60 33.34 60 33 60 C32.09586327 56.16275828 31.89423102 52.62497726 31.9375 48.6875 C31.94652344 47.61886719 31.95554687 46.55023438 31.96484375 45.44921875 C31.97644531 44.64097656 31.98804688 43.83273437 32 43 C32.99 43.495 32.99 43.495 34 44 C34 32.45 34 20.9 34 9 C33.67 9 33.34 9 33 9 C32.505 5.535 32.505 5.535 32 2 C31.20335937 2.16371094 30.40671875 2.32742187 29.5859375 2.49609375 C25.23204401 3.10791538 21.0136058 3.10799591 16.625 3.0625 C15.79355469 3.05798828 14.96210938 3.05347656 14.10546875 3.04882812 C12.07028103 3.03713164 10.03513077 3.01919935 8 3 C8 2.34 8 1.68 8 1 C5.36 1 2.72 1 0 1 C0 0.67 0 0.34 0 0 Z " fill="#94C146" transform="translate(320,229)"/>
<path d="M0 0 C1.28003366 4.1601094 1.80991907 8.22734693 -0.03515625 12.265625 C-1.24361431 15.69040493 -0.98846914 18.21415552 -0.625 21.8125 C-0.51414063 22.97394531 -0.40328125 24.13539063 -0.2890625 25.33203125 C-0.19367188 26.21246094 -0.09828125 27.09289062 0 28 C0.33 28 0.66 28 1 28 C0.90460938 29.12019531 0.80921875 30.24039062 0.7109375 31.39453125 C0.59838115 32.8671435 0.4864337 34.33980237 0.375 35.8125 C0.31054688 36.55048828 0.24609375 37.28847656 0.1796875 38.04882812 C-0.17970261 42.80558496 -0.17970261 42.80558496 2 47 C2 47.99 2 48.98 2 50 C3.32 50 4.64 50 6 50 C6.91058531 53.07322544 7.08886184 55.80097361 7 59 C6.01 58.67 5.02 58.34 4 58 C4 57.01 4 56.02 4 55 C3.07767578 54.91492188 3.07767578 54.91492188 2.13671875 54.828125 C0 54 0 54 -1.23046875 51.671875 C-1.54628906 50.70765625 -1.86210937 49.7434375 -2.1875 48.75 C-2.51105469 47.79609375 -2.83460938 46.8421875 -3.16796875 45.859375 C-7.49623717 30.98476242 -4.42079963 14.56941793 0 0 Z " fill="#3A8E77" transform="translate(222,286)"/>
<path d="M0 0 C9.57 0 19.14 0 29 0 C28.67 1.32 28.34 2.64 28 4 C20.57313685 4.10331031 13.36487404 3.99862699 6 3 C6 3.66 6 4.32 6 5 C5.01 5.495 5.01 5.495 4 6 C3.34444881 8.52733235 3.34444881 8.52733235 3 11 C3.66 11.33 4.32 11.66 5 12 C4.60217121 13.77516029 4.18096339 15.54509163 3.75 17.3125 C3.51796875 18.29863281 3.2859375 19.28476563 3.046875 20.30078125 C1.86650557 23.34419645 0.75177354 24.33415362 -2 26 C-2.05515496 23.72945424 -2.09330118 21.45849435 -2.125 19.1875 C-2.14820313 17.92292969 -2.17140625 16.65835938 -2.1953125 15.35546875 C-1.96368275 10.19012541 -0.92493328 5.08713304 0 0 Z " fill="#81B454" transform="translate(291,229)"/>
<path d="M0 0 C-1.28062485 1.7074998 -2.61767557 3.37373596 -4 5 C-4.66 5 -5.32 5 -6 5 C-6.33 5.99 -6.66 6.98 -7 8 C-7.66 8.61875 -8.32 9.2375 -9 9.875 C-11.31223002 12.3317444 -11.49777015 13.73550595 -12 17 C-12.66 17.99 -13.32 18.98 -14 20 C-14 21.32 -14 22.64 -14 24 C-17.63 24 -21.26 24 -25 24 C-22.84347599 14.65506262 -14.91894444 7.2350028 -8 1 C-5.29120665 -0.35439668 -2.99066732 -0.06501451 0 0 Z " fill="#519F5E" transform="translate(229,224)"/>
<path d="M0 0 C0.99 0.66 1.98 1.32 3 2 C2.5153125 2.53625 2.030625 3.0725 1.53125 3.625 C-14.78872691 22.70681916 -16.58787314 42.73440547 -16 67 C-18.5654594 64.4345406 -18.54046087 62.52313332 -19 59 C-19.33 59 -19.66 59 -20 59 C-20.08115993 55.93696422 -20.14057409 52.87609185 -20.1875 49.8125 C-20.21263672 48.94818359 -20.23777344 48.08386719 -20.26367188 47.19335938 C-20.32257532 42.06875979 -19.89400446 39.34100669 -17 35 C-16.28729417 31.52997446 -16.28729417 31.52997446 -15.9375 27.875 C-15.20925808 21.31388713 -15.20925808 21.31388713 -13 18 C-12.34 18 -11.68 18 -11 18 C-11 17.34 -11 16.68 -11 16 C-10.34 16 -9.68 16 -9 16 C-9 14.35 -9 12.7 -9 11 C-8.01 11 -7.02 11 -6 11 C-6 9.35 -6 7.7 -6 6 C-4.68 6 -3.36 6 -2 6 C-2.99 5.01 -3.98 4.02 -5 3 C-3.35 3 -1.7 3 0 3 C0 2.01 0 1.02 0 0 Z " fill="#599D90" transform="translate(206,197)"/>
<path d="M0 0 C0.66 0 1.32 0 2 0 C2.17471382 3.72857205 2.28098726 7.45608959 2.375 11.1875 C2.45041016 12.77014648 2.45041016 12.77014648 2.52734375 14.38476562 C2.67561494 22.21842682 2.67561494 22.21842682 -0.515625 25.91015625 C-1.65511358 26.64215564 -2.81898726 27.33707749 -4 28 C-5.31617056 28.87861297 -6.63122894 29.75889371 -7.9453125 30.640625 C-9.33559663 31.51511634 -10.72887295 32.38486747 -12.125 33.25 C-12.82753906 33.69601562 -13.53007812 34.14203125 -14.25390625 34.6015625 C-14.93582031 35.02695312 -15.61773437 35.45234375 -16.3203125 35.890625 C-16.93148926 36.27250977 -17.54266602 36.65439453 -18.17236328 37.04785156 C-20.09800896 38.05105997 -21.88051107 38.5591463 -24 39 C-23.67 37.35 -23.34 35.7 -23 34 C-21.35 34 -19.7 34 -18 34 C-18 33.34 -18 32.68 -18 32 C-16.68 32 -15.36 32 -14 32 C-14 31.34 -14 30.68 -14 30 C-12.02 29.34 -10.04 28.68 -8 28 C-8.66 27.01 -9.32 26.02 -10 25 C-9.25 23.0625 -9.25 23.0625 -8 21 C-6 20.3125 -6 20.3125 -4 20 C-3.34 19.67 -2.68 19.34 -2 19 C-2 16.36 -2 13.72 -2 11 C-1.34 11 -0.68 11 0 11 C0 7.37 0 3.74 0 0 Z " fill="#8ABC43" transform="translate(354,309)"/>
<path d="M0 0 C0.66 0.33 1.32 0.66 2 1 C1.42897488 4.74391122 -0.0946799 6.46934589 -2.74609375 9.109375 C-3.50083984 9.86347656 -4.25558594 10.61757812 -5.03320312 11.39453125 C-6.22333008 12.56048828 -6.22333008 12.56048828 -7.4375 13.75 C-8.22705078 14.54277344 -9.01660156 15.33554688 -9.83007812 16.15234375 C-15.73309085 22 -15.73309085 22 -18 22 C-18.66 23.32 -19.32 24.64 -20 26 C-20.66 26 -21.32 26 -22 26 C-22.66 27.32 -23.32 28.64 -24 30 C-24.66 30 -25.32 30 -26 30 C-26.33 30.99 -26.66 31.98 -27 33 C-27.66 33 -28.32 33 -29 33 C-28.43902568 29.6341541 -27.56149386 27.01888813 -26 24 C-26 23.34 -26 22.68 -26 22 C-22.04 21.505 -22.04 21.505 -18 21 C-18 19.02 -18 17.04 -18 15 C-16.865625 14.443125 -15.73125 13.88625 -14.5625 13.3125 C-11.44531169 11.5777124 -11.44531169 11.5777124 -10.0625 8.25 C-10.041875 7.5075 -10.02125 6.765 -10 6 C-9.0925 5.855625 -8.185 5.71125 -7.25 5.5625 C-4.78523044 5.13590527 -2.41152893 4.64925779 0 4 C0 2.68 0 1.36 0 0 Z " fill="#8EBB96" transform="translate(354,170)"/>
<path d="M0 0 C2.50951404 3.76427105 2.45495964 6.93451576 2.625 11.3125 C2.66294678 12.13468018 2.70089355 12.95686035 2.73999023 13.80395508 C3.15498971 23.86463389 3.09298571 33.93322439 3 44 C-1.20961305 45.84670417 -4.38820072 46.18085487 -9 46 C-9.33 47.32 -9.66 48.64 -10 50 C-12.31 49.67 -14.62 49.34 -17 49 C-14.22334525 47.14889683 -11.42600358 45.53814981 -8.5 43.9375 C-7.5409375 43.41027344 -6.581875 42.88304687 -5.59375 42.33984375 C-3 41 -3 41 0 40 C0 26.8 0 13.6 0 0 Z " fill="#7FAE5D" transform="translate(313,266)"/>
<path d="M0 0 C1.32 0.33 2.64 0.66 4 1 C3.01 3.31 2.02 5.62 1 8 C0.01 8 -0.98 8 -2 8 C-2.99 8.495 -2.99 8.495 -4 9 C-4.47051767 10.92079547 -4.47051767 10.92079547 -4.625 13.1875 C-4.69847656 13.99445313 -4.77195313 14.80140625 -4.84765625 15.6328125 C-5.02754045 18.42793619 -5.07179089 21.20015534 -5 24 C-6.32 24.33 -7.64 24.66 -9 25 C-8.20882096 26.99983534 -8.20882096 26.99983534 -7 29 C-6.01 29.33 -5.02 29.66 -4 30 C-4.33 30.66 -4.66 31.32 -5 32 C-5.763125 31.95875 -6.52625 31.9175 -7.3125 31.875 C-10.22718416 31.77919176 -10.22718416 31.77919176 -13 34 C-13.33 33.67 -13.66 33.34 -14 33 C-13.91062197 31.47480724 -13.75462854 29.95318071 -13.5625 28.4375 C-13.40974609 27.19806641 -13.40974609 27.19806641 -13.25390625 25.93359375 C-13.17011719 25.29550781 -13.08632812 24.65742188 -13 24 C-12.34 24 -11.68 24 -11 24 C-10.505 19.545 -10.505 19.545 -10 15 C-9.01 15 -8.02 15 -7 15 C-6.67 11.7 -6.34 8.4 -6 5 C-5.01 4.67 -4.02 4.34 -3 4 C-2.67 3.34 -2.34 2.68 -2 2 C-2 2.66 -2 3.32 -2 4 C-1.34 4 -0.68 4 0 4 C0 2.68 0 1.36 0 0 Z " fill="#177A67" transform="translate(157,192)"/>
<path d="M0 0 C0.33 0 0.66 0 1 0 C1 1.98 1 3.96 1 6 C1.99 6 2.98 6 4 6 C4 6.66 4 7.32 4 8 C5.32 8 6.64 8 8 8 C8 8.66 8 9.32 8 10 C6.68 10 5.36 10 4 10 C5.52206009 12.62901288 6.84365964 14.84365964 9 17 C8.67 17.99 8.34 18.98 8 20 C5.69 20 3.38 20 1 20 C1 23.96 1 27.92 1 32 C0.01 31.34 -0.98 30.68 -2 30 C-1.67 25.05 -1.34 20.1 -1 15 C-1.33 15 -1.66 15 -2 15 C-2.05386629 12.87527424 -2.09273071 10.75016348 -2.125 8.625 C-2.14820313 7.44164062 -2.17140625 6.25828125 -2.1953125 5.0390625 C-2 2 -2 2 0 0 Z " fill="#1A8C66" transform="translate(223,300)"/>
<path d="M0 0 C0.33 0 0.66 0 1 0 C0.67 3.3 0.34 6.6 0 10 C-0.99 10 -1.98 10 -3 10 C-3.33 12.97 -3.66 15.94 -4 19 C-4.66 19 -5.32 19 -6 19 C-5.99476318 19.62044189 -5.98952637 20.24088379 -5.98413086 20.88012695 C-5.96334534 23.69090767 -5.95033483 26.50167221 -5.9375 29.3125 C-5.92493164 30.77719727 -5.92493164 30.77719727 -5.91210938 32.27148438 C-5.90888672 33.20927734 -5.90566406 34.14707031 -5.90234375 35.11328125 C-5.89710693 35.97735596 -5.89187012 36.84143066 -5.88647461 37.73168945 C-6 40 -6 40 -7 43 C-7.99 43 -8.98 43 -10 43 C-10 50.26 -10 57.52 -10 65 C-10.33 65 -10.66 65 -11 65 C-11.49002873 42.2651801 -11.03178958 20.53285237 0 0 Z " fill="#4A8179" transform="translate(150,197)"/>
<path d="M0 0 C1.65 0.33 3.3 0.66 5 1 C4.34 2.98 3.68 4.96 3 7 C3.66 7 4.32 7 5 7 C5.33 7.66 5.66 8.32 6 9 C6.66 9.33 7.32 9.66 8 10 C7.67 10.99 7.34 11.98 7 13 C8.65 12.67 10.3 12.34 12 12 C12.33 12.66 12.66 13.32 13 14 C13.66 14 14.32 14 15 14 C15 14.66 15 15.32 15 16 C15.66 16 16.32 16 17 16 C17 15.01 17 14.02 17 13 C17.66 13 18.32 13 19 13 C19.33 14.65 19.66 16.3 20 18 C22.31 18.66 24.62 19.32 27 20 C27 20.99 27 21.98 27 23 C15.2051735 19.27273674 3.77351086 13.62810603 -6 6 C-5.67 5.01 -5.34 4.02 -5 3 C-4.01 3 -3.02 3 -2 3 C-1.34 2.01 -0.68 1.02 0 0 Z " fill="#247563" transform="translate(192,335)"/>
<path d="M0 0 C2.1875 1.3125 2.1875 1.3125 4 3 C4 3.66 4 4.32 4 5 C5.32 4.34 6.64 3.68 8 3 C9.22753749 7.85027007 9.25599902 12.65291417 9.3125 17.625 C9.34150391 18.48351562 9.37050781 19.34203125 9.40039062 20.2265625 C9.46431261 26.52041985 9.46431261 26.52041985 6.98046875 29.0859375 C6.32691406 29.38757813 5.67335938 29.68921875 5 30 C4.09785483 27.2935645 3.84333903 25.52397168 3.75390625 22.7265625 C3.72103516 21.9015625 3.68816406 21.0765625 3.65429688 20.2265625 C3.593379 18.50012414 3.5360536 16.77355506 3.48242188 15.046875 C3.23467074 8.79609383 3.23467074 8.79609383 1 3 C-1.01735205 1.65589738 -1.01735205 1.65589738 -3 1 C-2.01 0.67 -1.02 0.34 0 0 Z " fill="#7FBA4B" transform="translate(311,261)"/>
<path d="M0 0 C0.66 0 1.32 0 2 0 C2 0.66 2 1.32 2 2 C2.66 2 3.32 2 4 2 C4.33 1.34 4.66 0.68 5 0 C5 5.28 5 10.56 5 16 C4.34 16 3.68 16 3 16 C2.67 18.31 2.34 20.62 2 23 C0.35 23.33 -1.3 23.66 -3 24 C-2.4140625 17.84765625 -2.4140625 17.84765625 -2 16 C-1.34 15.67 -0.68 15.34 0 15 C-0.66 12.69 -1.32 10.38 -2 8 C-1.34 8 -0.68 8 0 8 C0 5.36 0 2.72 0 0 Z " fill="#178468" transform="translate(202,312)"/>
<path d="M0 0 C0.0270203 2.75006608 0.04684883 5.49986546 0.0625 8.25 C0.07087891 9.02730469 0.07925781 9.80460938 0.08789062 10.60546875 C0.09111328 11.35957031 0.09433594 12.11367187 0.09765625 12.890625 C0.10289307 13.58188477 0.10812988 14.27314453 0.11352539 14.98535156 C-0.00562029 17.09973898 -0.42381763 18.96641515 -1 21 C-0.34 21.33 0.32 21.66 1 22 C0.835 22.515625 0.67 23.03125 0.5 23.5625 C-0.15049 26.73363876 -0.0620734 29.77218334 0 33 C-0.99 33.495 -0.99 33.495 -2 34 C-3.95166306 26.69278911 -4.24317822 19.9781798 -4.125 12.4375 C-4.11597656 11.33341797 -4.10695312 10.22933594 -4.09765625 9.09179688 C-4.07430128 6.3942983 -4.04155054 3.69726923 -4 1 C-1 0 -1 0 0 0 Z " fill="#236A5D" transform="translate(144,239)"/>
<path d="M0 0 C0 1.32 0 2.64 0 4 C-1.32 3.67 -2.64 3.34 -4 3 C-4.66 4.32 -5.32 5.64 -6 7 C-3.03 7.495 -3.03 7.495 0 8 C-0.33 8.99 -0.66 9.98 -1 11 C-2.98 11.33 -4.96 11.66 -7 12 C-7.68707555 14.49064888 -8 16.37886292 -8 19 C-9.98 19 -11.96 19 -14 19 C-13.01 16.36 -12.02 13.72 -11 11 C-11.66 10.67 -12.32 10.34 -13 10 C-12.360625 9.29875 -11.72125 8.5975 -11.0625 7.875 C-8.83613898 4.77158767 -8.34919057 2.75379861 -8 -1 C-4.59745511 -2.2151946 -3.06748874 -1.86240388 0 0 Z " fill="#6FAF53" transform="translate(256,237)"/>
<path d="M0 0 C0.99 0 1.98 0 3 0 C2.91959473 0.60658447 2.83918945 1.21316895 2.75634766 1.83813477 C1.10382611 14.40649228 -0.36274032 26.95848753 -1.35302734 39.59790039 C-1.42473145 40.49758545 -1.49643555 41.39727051 -1.5703125 42.32421875 C-1.65949951 43.5011731 -1.65949951 43.5011731 -1.75048828 44.7019043 C-2.01905953 47.17554539 -2.47882556 49.56812152 -3 52 C-3.33 52 -3.66 52 -4 52 C-3.96970703 50.80922852 -3.93941406 49.61845703 -3.90820312 48.39160156 C-3.79587825 43.97104143 -3.68421626 39.55046477 -3.57275391 35.12988281 C-3.5244321 33.21711782 -3.47593086 31.30435735 -3.42724609 29.39160156 C-3.35727446 26.64128777 -3.28794946 23.89095832 -3.21875 21.140625 C-3.19687622 20.28631897 -3.17500244 19.43201294 -3.15246582 18.55181885 C-3.13244507 17.75129089 -3.11242432 16.95076294 -3.09179688 16.12597656 C-3.07403198 15.42426331 -3.05626709 14.72255005 -3.03796387 13.99957275 C-3.00000067 12.00003548 -3 9.99989762 -3 8 C-2.34 8 -1.68 8 -1 8 C-1.020625 7.05125 -1.04125 6.1025 -1.0625 5.125 C-1 2 -1 2 0 0 Z " fill="#A8CA82" transform="translate(280,216)"/>
<path d="M0 0 C4.60269859 1.55166733 8.12552134 4.03537141 12 6.875 C12.60328125 7.30941406 13.2065625 7.74382812 13.828125 8.19140625 C21.05440647 13.42260567 21.05440647 13.42260567 24 16 C24 16.66 24 17.32 24 18 C23.01 18 22.02 18 21 18 C21 17.34 21 16.68 21 16 C18.36 15.67 15.72 15.34 13 15 C13 14.01 13 13.02 13 12 C11.02 12.99 11.02 12.99 9 14 C8.01 13.34 7.02 12.68 6 12 C5.8125 8.875 5.8125 8.875 6 6 C4.68 5.67 3.36 5.34 2 5 C2.33 4.34 2.66 3.68 3 3 C2.34 3 1.68 3 1 3 C0.67 2.01 0.34 1.02 0 0 Z " fill="#599C6A" transform="translate(330,152)"/>
<path d="M0 0 C0 0.99 0 1.98 0 3 C0.75925781 2.98839844 1.51851562 2.97679687 2.30078125 2.96484375 C3.29464844 2.95582031 4.28851563 2.94679688 5.3125 2.9375 C6.29863281 2.92589844 7.28476563 2.91429687 8.30078125 2.90234375 C11 3 11 3 14 4 C15.1875 6.5625 15.1875 6.5625 16 9 C1.21867882 9.738041 1.21867882 9.738041 -5 5 C-5 4.01 -5 3.02 -5 2 C-2 0 -2 0 0 0 Z " fill="#338868" transform="translate(240,349)"/>
<path d="M0 0 C7.92 0.33 15.84 0.66 24 1 C24 1.66 24 2.32 24 3 C23.05125 2.95875 22.1025 2.9175 21.125 2.875 C17.89755144 2.65026182 17.89755144 2.65026182 16 5 C13.45368004 5.28035532 10.99069113 5.46530331 8.4375 5.5625 C3.84900773 5.35710009 3.84900773 5.35710009 0 7 C-4.73225005 7.33243079 -9.39288558 7.18893275 -14 6 C-10.04504575 3.38462703 -5.83172627 3.55735726 -1.25 3.375 C-0.45722656 3.33632812 0.33554687 3.29765625 1.15234375 3.2578125 C3.10119416 3.163892 5.05056451 3.08087178 7 3 C7.33 2.34 7.66 1.68 8 1 C5.36 1 2.72 1 0 1 C0 0.67 0 0.34 0 0 Z " fill="#219174" transform="translate(256,137)"/>
<path d="M0 0 C2.11063607 0.01839388 4.22083458 0.02050814 6.33154297 0.02026367 C17.51979159 0.06080798 17.51979159 0.06080798 22.35107422 1.20581055 C21.69107422 2.19581055 21.03107422 3.18581055 20.35107422 4.20581055 C19.77566895 4.13507324 19.20026367 4.06433594 18.60742188 3.99145508 C11.63113187 3.20588037 4.74193065 3.05551299 -2.27392578 3.08081055 C-3.35416016 3.07694336 -4.43439453 3.07307617 -5.54736328 3.0690918 C-11.34369806 3.0761605 -16.91758614 3.3315384 -22.64892578 4.20581055 C-22.64892578 3.54581055 -22.64892578 2.88581055 -22.64892578 2.20581055 C-15.09333331 0.08184955 -7.7981701 -0.0703938 0 0 Z " fill="#64A48D" transform="translate(262.64892578125,175.794189453125)"/>
<path d="M0 0 C0.33 0.99 0.66 1.98 1 3 C0.401875 3.474375 -0.19625 3.94875 -0.8125 4.4375 C-2.98907256 6.98719928 -3.53071093 8.31064114 -4.4375 11.4375 C-5.72649597 15.73651404 -7.47598818 18.10850312 -11 21 C-11.66 21.33 -12.32 21.66 -13 22 C-14 15.375 -14 15.375 -14 12 C-11.36 12 -8.72 12 -6 12 C-6.12375 10.7625 -6.2475 9.525 -6.375 8.25 C-6.3984375 6.046875 -6.3984375 6.046875 -6 4 C-3 1.5 -3 1.5 0 0 Z " fill="#68A371" transform="translate(270,276)"/>
<path d="M0 0 C1.32 0 2.64 0 4 0 C2.70882789 2.66467344 1.31329575 5.18297919 -0.27734375 7.6796875 C-0.92413086 8.70255859 -0.92413086 8.70255859 -1.58398438 9.74609375 C-2.48166658 11.15803257 -3.38009645 12.56949633 -4.27929688 13.98046875 C-6.75335387 17.89618935 -9.00912904 21.80800109 -11 26 C-11.33 26 -11.66 26 -12 26 C-12.80438962 19.88408525 -12.48632996 15.89488245 -8.6875 10.875 C-6.82421875 8.6171875 -6.82421875 8.6171875 -5 7 C-4.01 7 -3.02 7 -2 7 C-1.855625 6.401875 -1.71125 5.80375 -1.5625 5.1875 C-1.1127561 3.43849596 -0.57107659 1.71322977 0 0 Z " fill="#46946A" transform="translate(228,256)"/>
<path d="M0 0 C5.63624342 -0.23952163 10.48573392 0.61720415 15.9375 2 C16.71673828 2.19078125 17.49597656 2.3815625 18.29882812 2.578125 C20.20099248 3.0449138 22.10076009 3.52145136 24 4 C24 4.33 24 4.66 24 5 C19.33333333 5 14.66666667 5 10 5 C10 5.99 10 6.98 10 8 C7.48367565 8.89868727 6.39267692 9.1616905 3.875 8.125 C3.25625 7.75375 2.6375 7.3825 2 7 C1.34 6.67 0.68 6.34 0 6 C0 5.01 0 4.02 0 3 C1.65 2.67 3.3 2.34 5 2 C3.35 1.67 1.7 1.34 0 1 C0 0.67 0 0.34 0 0 Z M0 7 C2 8 2 8 2 8 Z " fill="#50A384" transform="translate(280,136)"/>
<path d="M0 0 C0.66 0.33 1.32 0.66 2 1 C1.18000656 6.79285686 -3.68795355 10.46315291 -8 14 C-10.46104791 15.17469256 -12.27990982 15.59488019 -15 16 C-15.12375 16.639375 -15.2475 17.27875 -15.375 17.9375 C-15.58125 18.618125 -15.7875 19.29875 -16 20 C-16.66 20.33 -17.32 20.66 -18 21 C-18 19.02 -18 17.04 -18 15 C-16.865625 14.443125 -15.73125 13.88625 -14.5625 13.3125 C-11.44531169 11.5777124 -11.44531169 11.5777124 -10.0625 8.25 C-10.041875 7.5075 -10.02125 6.765 -10 6 C-9.0925 5.855625 -8.185 5.71125 -7.25 5.5625 C-4.78523044 5.13590527 -2.41152893 4.64925779 0 4 C0 2.68 0 1.36 0 0 Z " fill="#5CA268" transform="translate(354,170)"/>
<path d="M0 0 C0.66 0.33 1.32 0.66 2 1 C4.09821215 0.60061233 4.09821215 0.60061233 6 0 C7.48381386 4.66726905 6.29550213 8.13068925 4.6875 12.5625 C4.46126953 13.22185547 4.23503906 13.88121094 4.00195312 14.56054688 C2.86462507 17.82176132 1.64688017 20.96139011 0 24 C-1.125 18.375 -1.125 18.375 0 15 C0.04346001 13.50062972 0.03998579 11.99946695 0 10.5 C-0.07891313 7.54075767 0.04446414 5.86660758 1 3 C0.34 3 -0.32 3 -1 3 C-0.67 2.01 -0.34 1.02 0 0 Z " fill="#30926E" transform="translate(209,280)"/>
<path d="M0 0 C2.31 0 4.62 0 7 0 C6.01 0.495 6.01 0.495 5 1 C5 1.66 5 2.32 5 3 C4.34 3 3.68 3 3 3 C2.67 3.99 2.34 4.98 2 6 C1.34 6 0.68 6 0 6 C-0.061875 6.53625 -0.12375 7.0725 -0.1875 7.625 C-1.40035264 11.17026157 -3.44610926 13.2592392 -6 16 C-6.66 16 -7.32 16 -8 16 C-8.05399736 14.54207116 -8.09279177 13.08357288 -8.125 11.625 C-8.15980469 10.40683594 -8.15980469 10.40683594 -8.1953125 9.1640625 C-8 7 -8 7 -6 5 C-5.67 5.66 -5.34 6.32 -5 7 C-3.29115995 5.37660195 -1.62553283 3.70680947 0 2 C0 1.34 0 0.68 0 0 Z " fill="#6DAB6C" transform="translate(240,240)"/>
<path d="M0 0 C-0.598125 0.28875 -1.19625 0.5775 -1.8125 0.875 C-4.19327792 2.04742026 -4.19327792 2.04742026 -7 4 C-3.04 5.98 0.92 7.96 5 10 C5 10.66 5 11.32 5 12 C4.22914063 11.91621094 3.45828125 11.83242188 2.6640625 11.74609375 C1.66117188 11.64425781 0.65828125 11.54242188 -0.375 11.4375 C-1.37273437 11.33308594 -2.37046875 11.22867187 -3.3984375 11.12109375 C-5.984037 10.78855292 -5.984037 10.78855292 -8 12 C-8.1546875 11.13375 -8.1546875 11.13375 -8.3125 10.25 C-9.09764466 7.68043567 -10.377478 6.11633305 -12 4 C-12 3.34 -12 2.68 -12 2 C-7.8794254 0.00214565 -4.54805635 -0.17835515 0 0 Z " fill="#398B69" transform="translate(239,308)"/>
<path d="M0 0 C1.04336284 3.39092922 1.22584687 6.4617323 1 10 C0.01 11.485 0.01 11.485 -1 13 C-1.30188788 15.274928 -1.49748639 17.56459107 -1.6328125 19.85546875 C-1.67437469 20.51710526 -1.71593689 21.17874176 -1.75875854 21.86042786 C-1.8892754 23.96903929 -2.00729278 26.07813854 -2.125 28.1875 C-2.21141605 29.61919057 -2.29864611 31.05083226 -2.38671875 32.48242188 C-2.60058645 35.98776372 -2.80325222 39.49365086 -3 43 C-3.33 43 -3.66 43 -4 43 C-7.16306186 28.9957987 -4.11341017 13.55636917 0 0 Z " fill="#7EB7A7" transform="translate(222,286)"/>
<path d="M0 0 C2.4375 0.375 2.4375 0.375 5 1 C6.35091528 3.70183055 6.33858058 6.11808206 6.5625 9.125 C6.64628906 10.22070312 6.73007813 11.31640625 6.81640625 12.4453125 C6.87699219 13.28835938 6.93757812 14.13140625 7 15 C1.36211699 13.52924791 1.36211699 13.52924791 -0.21875 11.21875 C-1.13635118 8.61276264 -1.02483285 6.96886335 -0.625 4.25 C-0.51414063 3.45078125 -0.40328125 2.6515625 -0.2890625 1.828125 C-0.19367188 1.22484375 -0.09828125 0.6215625 0 0 Z " fill="#29756A" transform="translate(154,296)"/>
<path d="M0 0 C0.66 0 1.32 0 2 0 C2.33 2.97 2.66 5.94 3 9 C2.01 9.495 2.01 9.495 1 10 C1.79117904 11.99983534 1.79117904 11.99983534 3 14 C3.99 14.33 4.98 14.66 6 15 C5.67 15.66 5.34 16.32 5 17 C4.236875 16.95875 3.47375 16.9175 2.6875 16.875 C-0.22718416 16.77919176 -0.22718416 16.77919176 -3 19 C-3.33 18.67 -3.66 18.34 -4 18 C-3.91062197 16.47480724 -3.75462854 14.95318071 -3.5625 13.4375 C-3.46066406 12.61121094 -3.35882813 11.78492188 -3.25390625 10.93359375 C-3.17011719 10.29550781 -3.08632812 9.65742188 -3 9 C-2.34 9 -1.68 9 -1 9 C-0.67 6.03 -0.34 3.06 0 0 Z " fill="#1C705E" transform="translate(147,207)"/>
<path d="M0 0 C0.66 0.66 1.32 1.32 2 2 C1.01 2.33 0.02 2.66 -1 3 C-1 2.34 -1 1.68 -1 1 C-1.65355469 1.64453125 -2.30710937 2.2890625 -2.98046875 2.953125 C-6.86898747 5.58906783 -9.7244201 5.65979646 -14.3125 5.75 C-15.05306641 5.77964844 -15.79363281 5.80929687 -16.55664062 5.83984375 C-18.37052046 5.91005845 -20.18526278 5.95735048 -22 6 C-20.67578125 4.00390625 -20.67578125 4.00390625 -19 2 C-17.00049364 1.95556653 -14.99961564 1.96079185 -13 2 C-12.030625 1.484375 -11.06125 0.96875 -10.0625 0.4375 C-6.21519406 -1.3683783 -4.0704226 -1.01760565 0 0 Z " fill="#5EA25A" transform="translate(307,353)"/>
<path d="M0 0 C0.33 0 0.66 0 1 0 C1 1.98 1 3.96 1 6 C2.22976563 5.97679687 3.45953125 5.95359375 4.7265625 5.9296875 C6.3593689 5.91091961 7.9921819 5.89272051 9.625 5.875 C10.43324219 5.85824219 11.24148438 5.84148437 12.07421875 5.82421875 C16.80093815 5.78579014 20.55387702 6.17262906 25 8 C25 8.33 25 8.66 25 9 C16.75 9 8.5 9 0 9 C0 6.03 0 3.06 0 0 Z " fill="#7EAE5A" transform="translate(288,256)"/>
<path d="M0 0 C3.3 0.33 6.6 0.66 10 1 C9.34 2.98 8.68 4.96 8 7 C6.02 7 4.04 7 2 7 C2 7.66 2 8.32 2 9 C1.34 9 0.68 9 0 9 C0 9.66 0 10.32 0 11 C-2.64 11.33 -5.28 11.66 -8 12 C-8 11.01 -8 10.02 -8 9 C-4.535 8.505 -4.535 8.505 -1 8 C-0.67 5.36 -0.34 2.72 0 0 Z " fill="#178C75" transform="translate(224,175)"/>
<path d="M0 0 C0.66 0.33 1.32 0.66 2 1 C-2.46464904 4.89082268 -7.09488996 8.13301159 -12.125 11.25 C-12.82753906 11.69601562 -13.53007812 12.14203125 -14.25390625 12.6015625 C-14.93582031 13.02695312 -15.61773437 13.45234375 -16.3203125 13.890625 C-16.93148926 14.27250977 -17.54266602 14.65439453 -18.17236328 15.04785156 C-20.09800896 16.05105997 -21.88051107 16.5591463 -24 17 C-23.67 15.35 -23.34 13.7 -23 12 C-21.35 12 -19.7 12 -18 12 C-18 11.34 -18 10.68 -18 10 C-16.68 10 -15.36 10 -14 10 C-14 9.34 -14 8.68 -14 8 C-12.02 7.34 -10.04 6.68 -8 6 C-8.33 5.34 -8.66 4.68 -9 4 C-7.88625 3.71125 -6.7725 3.4225 -5.625 3.125 C-1.99708908 2.30758671 -1.99708908 2.30758671 0 0 Z " fill="#BCD99F" transform="translate(354,331)"/>
<path d="M0 0 C-1.65 0.33 -3.3 0.66 -5 1 C-5 1.66 -5 2.32 -5 3 C-11.47476539 4.93402083 -17.3274234 5.27425692 -24.0625 5.1875 C-25.01705078 5.18685547 -25.97160156 5.18621094 -26.95507812 5.18554688 C-32.07072036 5.1537727 -36.95859016 4.87403083 -42 4 C-42 3.67 -42 3.34 -42 3 C-41.1028125 3.02320313 -40.205625 3.04640625 -39.28125 3.0703125 C-28.4973828 3.22627752 -17.61833001 2.89675783 -7.18359375 -0.09375 C-4.13619629 -0.96123001 -2.87846399 -1.15138559 0 0 Z " fill="#8FB98C" transform="translate(296,316)"/>
<path d="M0 0 C-0.66 1.32 -1.32 2.64 -2 4 C-2.66 3.67 -3.32 3.34 -4 3 C-4 3.66 -4 4.32 -4 5 C-5.32 5.33 -6.64 5.66 -8 6 C-8.0825 6.556875 -8.165 7.11375 -8.25 7.6875 C-9.24709896 10.76188846 -10.79229454 12.66242952 -13 15 C-13.99 15 -14.98 15 -16 15 C-16 14.34 -16 13.68 -16 13 C-15.01 13 -14.02 13 -13 13 C-13 12.34 -13 11.68 -13 11 C-13.78375 11.515625 -14.5675 12.03125 -15.375 12.5625 C-16.24125 13.036875 -17.1075 13.51125 -18 14 C-18.66 13.67 -19.32 13.34 -20 13 C-4.63888889 0 -4.63888889 0 0 0 Z " fill="#539A8E" transform="translate(196,151)"/>
<path d="M0 0 C4.35842858 0 7.22514092 0.26393566 10.4296875 3.3984375 C14 7.5335452 14 7.5335452 14 10 C14.99 10.33 15.98 10.66 17 11 C16.01 11.495 16.01 11.495 15 12 C11.9375 10.75 11.9375 10.75 9 9 C8.67 8.01 8.34 7.02 8 6 C8.33 5.34 8.66 4.68 9 4 C8.34 4 7.68 4 7 4 C7 4.99 7 5.98 7 7 C6.34 7 5.68 7 5 7 C5 6.34 5 5.68 5 5 C4.01 5.33 3.02 5.66 2 6 C2 5.01 2 4.02 2 3 C0.35 3.33 -1.3 3.66 -3 4 C-2.34 3.67 -1.68 3.34 -1 3 C-0.67 2.01 -0.34 1.02 0 0 Z " fill="#1D7F6C" transform="translate(202,344)"/>
<path d="M0 0 C0.66 0.33 1.32 0.66 2 1 C0.35 1.66 -1.3 2.32 -3 3 C-3 3.99 -3 4.98 -3 6 C-5.31 6.33 -7.62 6.66 -10 7 C-10 7.66 -10 8.32 -10 9 C-10.598125 9.28875 -11.19625 9.5775 -11.8125 9.875 C-14.19327792 11.04742026 -14.19327792 11.04742026 -17 13 C-19.6875 13.125 -19.6875 13.125 -22 13 C-18.63349683 9.16855777 -14.90136897 7.10685117 -10.4375 4.8125 C-9.76525391 4.45736328 -9.09300781 4.10222656 -8.40039062 3.73632812 C-5.63050153 2.28674366 -2.97047898 0.99015966 0 0 Z " fill="#ABCD8F" transform="translate(246,211)"/>
<path d="M0 0 C0.33 0 0.66 0 1 0 C1.33 9.57 1.66 19.14 2 29 C-0.5654594 26.4345406 -0.54046087 24.52313332 -1 21 C-1.33 21 -1.66 21 -2 21 C-2.05791844 17.87507749 -2.09356746 14.75029234 -2.125 11.625 C-2.14175781 10.73554688 -2.15851563 9.84609375 -2.17578125 8.9296875 C-2.18222656 8.07890625 -2.18867188 7.228125 -2.1953125 6.3515625 C-2.20578613 5.56604004 -2.21625977 4.78051758 -2.22705078 3.97119141 C-2 2 -2 2 0 0 Z " fill="#54978A" transform="translate(188,235)"/>
<path d="M0 0 C0.33 0.66 0.66 1.32 1 2 C0.21654285 3.17219543 -0.57702836 4.33763668 -1.375 5.5 C-1.81585938 6.1496875 -2.25671875 6.799375 -2.7109375 7.46875 C-3.13632813 7.9740625 -3.56171875 8.479375 -4 9 C-4.66 9 -5.32 9 -6 9 C-6 10.32 -6 11.64 -6 13 C-7.98 13.33 -9.96 13.66 -12 14 C-10.38948895 9.31487695 -8.15511436 4.83633223 -5 1 C-2.1875 0 -2.1875 0 0 0 Z " fill="#2F8172" transform="translate(163,183)"/>
<path d="M0 0 C0.66 0 1.32 0 2 0 C2.82638376 2.89234315 3 4.88742431 3 8 C3.804375 9.2065625 3.804375 9.2065625 4.625 10.4375 C6 13 6 13 5.1875 15.8125 C4.795625 16.534375 4.40375 17.25625 4 18 C0.26170422 13.70095985 -3 7.75071925 -3 2 C-2.34 2 -1.68 2 -1 2 C-0.67 1.34 -0.34 0.68 0 0 Z " fill="#478179" transform="translate(149,286)"/>
<path d="M0 0 C-0.6162987 4.00594152 -2.70399959 6.72993881 -5 10 C-5.99 11.485 -5.99 11.485 -7 13 C-6.52026735 7.96280722 -4.87514323 5.10570454 -2 1 C-4.58373234 1.30944701 -7.16695133 1.62243957 -9.75 1.9375 C-10.47960937 2.02451172 -11.20921875 2.11152344 -11.9609375 2.20117188 C-16.01789116 2.6827116 -16.01789116 2.6827116 -20.00878906 3.52954102 C-23.00119167 4.23654933 -25.94024466 4.05884145 -29 4 C-24.39376935 1.47955964 -19.61256308 0.73505286 -14.5 -0.25 C-13.54996094 -0.44851562 -12.59992188 -0.64703125 -11.62109375 -0.8515625 C-10.70457031 -1.02945313 -9.78804688 -1.20734375 -8.84375 -1.390625 C-8.01037109 -1.55594727 -7.17699219 -1.72126953 -6.31835938 -1.89160156 C-3.62249471 -2.01765084 -2.27520532 -1.39156689 0 0 Z " fill="#D2E4AF" transform="translate(290,203)"/>
<path d="M0 0 C0.9305172 3.04848546 1.02001966 5.40768079 0.625 8.5625 C0.53476563 9.32691406 0.44453125 10.09132813 0.3515625 10.87890625 C0 13 0 13 -1 16 C-1.66 16 -2.32 16 -3 16 C-3.33 15.34 -3.66 14.68 -4 14 C-4.66 14 -5.32 14 -6 14 C-5.40802528 9.14580734 -4.13607512 5.35759324 -2 1 C-1.34 0.67 -0.68 0.34 0 0 Z " fill="#4A966B" transform="translate(229,272)"/>
<path d="M0 0 C0.66 0.33 1.32 0.66 2 1 C1.79375 2.0725 1.5875 3.145 1.375 4.25 C1.0123809 7.87619096 1.01637931 9.08291076 3 12 C1.35 12 -0.3 12 -2 12 C-2.33 11.34 -2.66 10.68 -3 10 C-3.33 10.66 -3.66 11.32 -4 12 C-5.32 11.67 -6.64 11.34 -8 11 C-6.6875 7.5625 -6.6875 7.5625 -5 4 C-4.01 3.67 -3.02 3.34 -2 3 C-1.34 2.01 -0.68 1.02 0 0 Z " fill="#529D66" transform="translate(238,260)"/>
<path d="M0 0 C0.33 0 0.66 0 1 0 C1.06058594 0.98742187 1.12117187 1.97484375 1.18359375 2.9921875 C1.26738281 4.27351562 1.35117188 5.55484375 1.4375 6.875 C1.51871094 8.15117187 1.59992188 9.42734375 1.68359375 10.7421875 C1.79206027 13.88300152 1.79206027 13.88300152 3 16 C3.23076923 21.53846154 3.23076923 21.53846154 2 24 C0.35 24 -1.3 24 -3 24 C-2.505 22.515 -2.505 22.515 -2 21 C-1.78717687 19.3752344 -1.61319968 17.74519652 -1.46484375 16.11328125 C-1.37783203 15.17548828 -1.29082031 14.23769531 -1.20117188 13.27148438 C-1.11416016 12.29501953 -1.02714844 11.31855469 -0.9375 10.3125 C-0.84662109 9.32443359 -0.75574219 8.33636719 -0.66210938 7.31835938 C-0.43822321 4.87917852 -0.21764761 2.43974413 0 0 Z " fill="#227864" transform="translate(187,248)"/>
<path d="M0 0 C0.33 0.66 0.66 1.32 1 2 C0.45730469 2.47050781 -0.08539063 2.94101563 -0.64453125 3.42578125 C-1.35996094 4.04839844 -2.07539063 4.67101562 -2.8125 5.3125 C-3.52019531 5.92738281 -4.22789062 6.54226562 -4.95703125 7.17578125 C-5.63121094 7.77777344 -6.30539063 8.37976563 -7 9 C-7.58136719 9.48855469 -8.16273438 9.97710937 -8.76171875 10.48046875 C-10.42114487 12.19010213 -10.42114487 12.19010213 -10 16 C-10.99 16 -11.98 16 -13 16 C-13.66 18.31 -14.32 20.62 -15 23 C-16.32 23.33 -17.64 23.66 -19 24 C-16.84347599 14.65506262 -8.91894444 7.2350028 -2 1 C-1.34 0.67 -0.68 0.34 0 0 Z " fill="#9DC6A4" transform="translate(223,224)"/>
<path d="M0 0 C0.33 0 0.66 0 1 0 C1 1.65 1 3.3 1 5 C1.66 5 2.32 5 3 5 C2.125 11.75 2.125 11.75 1 14 C0.34 14 -0.32 14 -1 14 C-1.33 14.66 -1.66 15.32 -2 16 C-2.99 16 -3.98 16 -5 16 C-5 13.36 -5 10.72 -5 8 C-4.34 8 -3.68 8 -3 8 C-3 8.66 -3 9.32 -3 10 C-2.34 10 -1.68 10 -1 10 C-1.020625 8.72125 -1.04125 7.4425 -1.0625 6.125 C-1.125 2.25 -1.125 2.25 0 0 Z " fill="#308569" transform="translate(198,272)"/>
<path d="M0 0 C0.69921875 1.5625 0.69921875 1.5625 1 4 C0.03674193 6.46780315 -0.96218341 8.67116767 -2.1875 11 C-2.49236328 11.61617188 -2.79722656 12.23234375 -3.11132812 12.8671875 C-4.97156596 16.50186604 -6.94533964 19.29076686 -10 22 C-9.75 18.625 -9.75 18.625 -9 15 C-8.33484375 14.68546875 -7.6696875 14.3709375 -6.984375 14.046875 C-6.32953125 13.70140625 -5.6746875 13.3559375 -5 13 C-4.44739056 10.94085315 -4.44739056 10.94085315 -4.5 8.625 C-4.2811687 5.14053237 -4.2132385 4.26493268 -1.9375 1.4375 C-1.298125 0.963125 -0.65875 0.48875 0 0 Z " fill="#8EB983" transform="translate(275,268)"/>
<path d="M0 0 C0.33 0 0.66 0 1 0 C1.10655578 6.44070471 0.96205088 12.62641289 0 19 C-0.66 19 -1.32 19 -2 19 C-2.33 17.68 -2.66 16.36 -3 15 C-3.66 15 -4.32 15 -5 15 C-5 13.02 -5 11.04 -5 9 C-5.99 9 -6.98 9 -8 9 C-7.67 6.36 -7.34 3.72 -7 1 C-4.91620491 4.84700632 -3.50313376 8.90054429 -2 13 C-1.34 8.71 -0.68 4.42 0 0 Z " fill="#8DCBB4" transform="translate(197,263)"/>
<path d="M0 0 C1.98 0 3.96 0 6 0 C6.28571429 8.57142857 6.28571429 8.57142857 4 12 C3.67 11.34 3.34 10.68 3 10 C2.34 10 1.68 10 1 10 C0 3.375 0 3.375 0 0 Z " fill="#1E7A6C" transform="translate(184,224)"/>
<path d="M0 0 C1.32 0.33 2.64 0.66 4 1 C3.67 1.33 3.34 1.66 3 2 C4.32 2.66 5.64 3.32 7 4 C6.2265625 4.30292969 5.453125 4.60585937 4.65625 4.91796875 C-1.07331011 7.22255666 -6.37523096 9.58428283 -11.4765625 13.08203125 C-13 14 -13 14 -15 14 C-15 11 -15 11 -13 9 C-10.375 8.875 -10.375 8.875 -8 9 C-8 8.34 -8 7.68 -8 7 C-7.34 7 -6.68 7 -6 7 C-6 6.34 -6 5.68 -6 5 C-4.35 4.67 -2.7 4.34 -1 4 C-0.67 2.68 -0.34 1.36 0 0 Z " fill="#3D9282" transform="translate(232,177)"/>
<path d="M0 0 C3.3 0 6.6 0 10 0 C9.67 1.98 9.34 3.96 9 6 C8.34 6 7.68 6 7 6 C6.67 6.66 6.34 7.32 6 8 C4.02 8 2.04 8 0 8 C0.2784375 7.13375 0.2784375 7.13375 0.5625 6.25 C1.2238169 3.69606643 1.2238169 3.69606643 0 0 Z " fill="#188274" transform="translate(200,192)"/>
<path d="M0 0 C7.92 0 15.84 0 24 0 C23.67 0.99 23.34 1.98 23 3 C14.92970447 3.11547323 7.02332397 2.90041311 -1 2 C-0.67 1.34 -0.34 0.68 0 0 Z " fill="#84C03C" transform="translate(296,230)"/>
<path d="M0 0 C2.31 0 4.62 0 7 0 C7.33 0.66 7.66 1.32 8 2 C8.66 2 9.32 2 10 2 C10 2.66 10 3.32 10 4 C10.66 4 11.32 4 12 4 C12 3.01 12 2.02 12 1 C12.66 1 13.32 1 14 1 C14.33 2.65 14.66 4.3 15 6 C17.31 6.66 19.62 7.32 22 8 C22 8.99 22 9.98 22 11 C14.17271666 8.42623178 7.12412253 5.13392023 0 1 C0 0.67 0 0.34 0 0 Z " fill="#80B3A7" transform="translate(197,347)"/>
<path d="M0 0 C1.27230469 0.10828125 1.27230469 0.10828125 2.5703125 0.21875 C11.08502245 0.89244134 19.45712664 1.11684781 28 1 C26.76171875 2.51953125 26.76171875 2.51953125 25 4 C22.21464152 4.10118893 19.76464243 3.49854208 17 3 C16.67 3.66 16.34 4.32 16 5 C13.69 5 11.38 5 9 5 C9 4.01 9 3.02 9 2 C6.36 2 3.72 2 1 2 C0.67 1.34 0.34 0.68 0 0 Z " fill="#529764" transform="translate(247,319)"/>
<path d="M0 0 C1.65 0 3.3 0 5 0 C3.71937515 1.7074998 2.38232443 3.37373596 1 5 C0.34 5 -0.32 5 -1 5 C-1.33 5.99 -1.66 6.98 -2 8 C-3.62890625 9.38671875 -3.62890625 9.38671875 -5.5625 10.6875 C-6.52349609 11.34298828 -6.52349609 11.34298828 -7.50390625 12.01171875 C-7.99761719 12.33785156 -8.49132812 12.66398438 -9 13 C-9.66 12.34 -10.32 11.68 -11 11 C-9.54782324 9.49403892 -8.08807139 7.99537896 -6.625 6.5 C-5.40683594 5.24703125 -5.40683594 5.24703125 -4.1640625 3.96875 C-2 2 -2 2 0 2 C0 1.34 0 0.68 0 0 Z " fill="#6BA464" transform="translate(224,224)"/>
<path d="M0 0 C-23.6599128 9.74788407 -23.6599128 9.74788407 -29 8 C-28.67 7.01 -28.34 6.02 -28 5 C-26.68 5 -25.36 5 -24 5 C-24 5.66 -24 6.32 -24 7 C-23.67 6.525625 -23.34 6.05125 -23 5.5625 C-20.47896652 3.59294259 -18.37266732 3.64533216 -15.2578125 3.38671875 C-11.88911055 2.80972655 -9.08984575 1.31304904 -6.078125 -0.2578125 C-3.62096934 -1.13536809 -2.42089768 -0.86149062 0 0 Z " fill="#ACCFA0" transform="translate(330,349)"/>
<path d="M0 0 C0.33 0 0.66 0 1 0 C1 13.53 1 27.06 1 41 C0.34 41 -0.32 41 -1 41 C-1.33 41.99 -1.66 42.98 -2 44 C-3.32 43.67 -4.64 43.34 -6 43 C-2.25 40 -2.25 40 0 40 C0 26.8 0 13.6 0 0 Z " fill="#A2C48E" transform="translate(313,266)"/>
<path d="M0 0 C0.66 0 1.32 0 2 0 C2 0.66 2 1.32 2 2 C2.66 2 3.32 2 4 2 C4.33 1.34 4.66 0.68 5 0 C5 5.28 5 10.56 5 16 C4.67 16 4.34 16 4 16 C3.67 13.69 3.34 11.38 3 9 C1.02 9.99 1.02 9.99 -1 11 C-1.33 10.01 -1.66 9.02 -2 8 C-1.34 8 -0.68 8 0 8 C0 5.36 0 2.72 0 0 Z " fill="#277E67" transform="translate(202,312)"/>
<path d="M0 0 C0 3 0 3 -1 5 C-0.34 5 0.32 5 1 5 C-0.36983503 8.16115776 -0.9890638 8.9927092 -4 11 C-5.32 11 -6.64 11 -8 11 C-8.33 11.66 -8.66 12.32 -9 13 C-9.66 13 -10.32 13 -11 13 C-9.46356148 9.31930113 -7.21849055 7.01224796 -4.375 4.25 C-3.55773437 3.45078125 -2.74046875 2.6515625 -1.8984375 1.828125 C-0.95871094 0.92320312 -0.95871094 0.92320312 0 0 Z M1 3 C1.99 3.495 1.99 3.495 3 4 C2.01 4.495 2.01 4.495 1 5 C1 4.34 1 3.68 1 3 Z " fill="#4C938C" transform="translate(175,165)"/>
<path d="M0 0 C-1.299375 -0.020625 -2.59875 -0.04125 -3.9375 -0.0625 C-5.29165633 -0.08399454 -6.64756083 -0.07148199 -8 0 C-8.33 0.33 -8.66 0.66 -9 1 C-10.66617115 1.04063832 -12.33388095 1.042721 -14 1 C-14.33 1.99 -14.66 2.98 -15 4 C-15.66 3.67 -16.32 3.34 -17 3 C-18.66619446 2.9603287 -20.33391013 2.95615553 -22 3 C-22 2.34 -22 1.68 -22 1 C-14.63739586 -1.92415484 -7.28172794 -4.10722183 0 0 Z " fill="#1F8270" transform="translate(240,141)"/>
<path d="M0 0 C0.33 0 0.66 0 1 0 C1 2.64 1 5.28 1 8 C1.99 8.33 2.98 8.66 4 9 C3.34 9 2.68 9 2 9 C2 9.66 2 10.32 2 11 C-0.28155293 10.60662881 -1.86700007 10.08713789 -3.8125 8.8125 C-5 7 -5 7 -4.6875 3.8125 C-4.460625 2.884375 -4.23375 1.95625 -4 1 C-3.34 1 -2.68 1 -2 1 C-2 1.66 -2 2.32 -2 3 C-1.34 3 -0.68 3 0 3 C0 2.01 0 1.02 0 0 Z " fill="#1B6F63" transform="translate(175,320)"/>
<path d="M0 0 C0.33 0 0.66 0 1 0 C0.67 3.3 0.34 6.6 0 10 C-0.99 10 -1.98 10 -3 10 C-3.33 12.97 -3.66 15.94 -4 19 C-4.66 19 -5.32 19 -6 19 C-6.33 20.65 -6.66 22.3 -7 24 C-8.09420988 20.71737037 -7.97611604 20.21244482 -6.85546875 17.12890625 C-6.59056641 16.38962891 -6.32566406 15.65035156 -6.05273438 14.88867188 C-5.62444336 13.7372168 -5.62444336 13.7372168 -5.1875 12.5625 C-4.91357422 11.79873047 -4.63964844 11.03496094 -4.35742188 10.24804688 C-3.07575348 6.71654332 -1.72575856 3.34193774 0 0 Z " fill="#6EA398" transform="translate(150,197)"/>
<path d="M0 0 C0.66 0 1.32 0 2 0 C1.835 0.928125 1.67 1.85625 1.5 2.8125 C0.92251612 5.95621353 0.92251612 5.95621353 1 9 C-0.65 9.66 -2.3 10.32 -4 11 C-4 10.34 -4 9.68 -4 9 C-5.32 8.67 -6.64 8.34 -8 8 C-8 7.34 -8 6.68 -8 6 C-6.68 5.67 -5.36 5.34 -4 5 C-4 4.34 -4 3.68 -4 3 C-3.01 2.67 -2.02 2.34 -1 2 C-0.67 1.34 -0.34 0.68 0 0 Z " fill="#0F8278" transform="translate(196,151)"/>
<path d="M0 0 C0 0.99 0 1.98 0 3 C3.63 3 7.26 3 11 3 C11.33 4.32 11.66 5.64 12 7 C10.68 7 9.36 7 8 7 C8 6.34 8 5.68 8 5 C4.80097361 4.91113816 2.07322544 5.08941469 -1 6 C-1 5.34 -1 4.68 -1 4 C-2.32 4 -3.64 4 -5 4 C-5 3.34 -5 2.68 -5 2 C-2 0 -2 0 0 0 Z " fill="#238669" transform="translate(240,349)"/>
<path d="M0 0 C1.79260132 0.05995322 3.58425795 0.1487241 5.375 0.25 C6.87160156 0.31960937 6.87160156 0.31960937 8.3984375 0.390625 C9.68621094 0.69226563 9.68621094 0.69226563 11 1 C12.1953125 3.01953125 12.1953125 3.01953125 13 5 C13.825 5.144375 14.65 5.28875 15.5 5.4375 C16.325 5.623125 17.15 5.80875 18 6 C19.3125 8.5625 19.3125 8.5625 20 11 C15.45910073 9.31338027 11.59372682 6.99607926 7.5 4.4375 C5.05639899 3.03242942 2.63891571 1.98016869 0 1 C0 0.67 0 0.34 0 0 Z " fill="#80AD8D" transform="translate(292,183)"/>
<path d="M0 0 C2.15478516 -0.34057617 2.15478516 -0.34057617 4.7890625 -0.29296875 C5.73007813 -0.28330078 6.67109375 -0.27363281 7.640625 -0.26367188 C9.11789063 -0.2259668 9.11789063 -0.2259668 10.625 -0.1875 C12.11386719 -0.16719727 12.11386719 -0.16719727 13.6328125 -0.14648438 C16.08908072 -0.11105743 18.54427285 -0.06166196 21 0 C20.67 0.66 20.34 1.32 20 2 C9.11 2.495 9.11 2.495 -2 3 C-1.34 2.01 -0.68 1.02 0 0 Z " fill="#0A9072" transform="translate(243,139)"/>
<path d="M0 0 C2.69461986 4.04192978 2.23200889 6.2051496 2 11 C1.67 11.33 1.34 11.66 1 12 C0.63239269 14.32817964 0.29758419 16.6618385 0 19 C-0.66 19 -1.32 19 -2 19 C-2.05451714 16.95863605 -2.09302485 14.91684144 -2.125 12.875 C-2.14820313 11.73804688 -2.17140625 10.60109375 -2.1953125 9.4296875 C-1.99672109 5.94242233 -1.2524801 3.2446138 0 0 Z " fill="#76B347" transform="translate(274,248)"/>
<path d="M0 0 C1.07765625 0.01804688 2.1553125 0.03609375 3.265625 0.0546875 C4.49539063 0.08949219 4.49539063 0.08949219 5.75 0.125 C5.30527344 0.98351562 5.30527344 0.98351562 4.8515625 1.859375 C3.80911714 4.00341156 2.94522452 6.13802404 2.125 8.375 C1.67125 9.6125 1.2175 10.85 0.75 12.125 C0.42 12.125 0.09 12.125 -0.25 12.125 C-0.5 5.5 -0.5 5.5 1.75 2.125 C-2.21 2.125 -6.17 2.125 -10.25 2.125 C-6.14441282 0.07220641 -4.44793315 -0.0966942 0 0 Z " fill="#9DBD65" transform="translate(282.25,203.875)"/>
<path d="M0 0 C6.25224887 1.00482571 11.72131208 2.98822614 17.5 5.5 C18.21865234 5.80881104 18.93730469 6.11762207 19.67773438 6.43579102 C24.87360347 8.74720695 24.87360347 8.74720695 26 11 C25.195625 10.71125 24.39125 10.4225 23.5625 10.125 C19.41868933 8.81642821 15.25021337 7.88782235 11 7 C11 6.34 11 5.68 11 5 C10.01 5 9.02 5 8 5 C8 4.34 8 3.68 8 3 C5.36 2.34 2.72 1.68 0 1 C0 0.67 0 0.34 0 0 Z " fill="#A0CBB6" transform="translate(304,141)"/>
<path d="M0 0 C-0.33 1.65 -0.66 3.3 -1 5 C-4.69541586 5.95024979 -7.30458414 5.95024979 -11 5 C-10.67 4.34 -10.34 3.68 -10 3 C-9.01 3 -8.02 3 -7 3 C-7 2.34 -7 1.68 -7 1 C-4.50935112 0.31292445 -2.62113708 0 0 0 Z M-11 6 C-10.01 6.495 -10.01 6.495 -9 7 C-9.99 7.495 -9.99 7.495 -11 8 C-11 7.34 -11 6.68 -11 6 Z " fill="#1E8071" transform="translate(210,146)"/>
<path d="M0 0 C0.66 0 1.32 0 2 0 C2.4125 1.2375 2.825 2.475 3.25 3.75 C4.59413591 7.37470775 6.1639984 9.34696624 9 12 C10.25 14.75 10.25 14.75 11 17 C7.93031846 15.97677282 7.03172132 15.38506416 5 13 C4.67 12.319375 4.34 11.63875 4 10.9375 C3.02674942 8.66757845 3.02674942 8.66757845 0 7 C-0.1875 3.375 -0.1875 3.375 0 0 Z " fill="#539587" transform="translate(208,338)"/>
<path d="M0 0 C0.33 0.66 0.66 1.32 1 2 C5.13574827 2.0984702 8.93631321 1.77403558 13 1 C11.75 2.5 11.75 2.5 10 4 C8.68 4 7.36 4 6 4 C6 4.66 6 5.32 6 6 C3.83125748 5.49396008 2.00032373 5.00016187 0 4 C-1.66619446 3.9603287 -3.33391013 3.95615553 -5 4 C-5.33 3.01 -5.66 2.02 -6 1 C-4.02 0.67 -2.04 0.34 0 0 Z " fill="#7CB450" transform="translate(334,335)"/>
<path d="M0 0 C1.98 0 3.96 0 6 0 C6 1.98 6 3.96 6 6 C5.01 6 4.02 6 3 6 C2.67 6.99 2.34 7.98 2 9 C1.34 8.67 0.68 8.34 0 8 C-1.27536232 2.55072464 -1.27536232 2.55072464 0 0 Z " fill="#2A685E" transform="translate(146,280)"/>
<path d="M0 0 C0.66 0 1.32 0 2 0 C2.24942467 2.41611371 2.47507501 4.83059121 2.6875 7.25 C2.76033203 7.93191406 2.83316406 8.61382812 2.90820312 9.31640625 C3.30461213 14.11995065 3.06875474 14.90832702 0 19 C0 12.73 0 6.46 0 0 Z " fill="#7BB93D" transform="translate(316,272)"/>
<path d="M0 0 C-0.020625 1.010625 -0.04125 2.02125 -0.0625 3.0625 C-0.00312266 6.80327257 0.39795085 10.31244898 1 14 C-0.65 13.67 -2.3 13.34 -4 13 C-3.88652381 11.02013918 -3.7589065 9.04108402 -3.625 7.0625 C-3.55539063 5.96035156 -3.48578125 4.85820312 -3.4140625 3.72265625 C-3.27742187 2.82417969 -3.14078125 1.92570312 -3 1 C-1 0 -1 0 0 0 Z " fill="#359B60" transform="translate(232,275)"/>
<path d="M0 0 C6.27 0 12.54 0 19 0 C19 0.33 19 0.66 19 1 C9.95960217 2.27041977 1.15564771 3.34915606 -8 3 C-8 2.67 -8 2.34 -8 2 C-5.36 2 -2.72 2 0 2 C0 1.34 0 0.68 0 0 Z " fill="#9DC4A7" transform="translate(272,360)"/>
<path d="M0 0 C0.99 0.33 1.98 0.66 3 1 C3.33 1.99 3.66 2.98 4 4 C5.32 4 6.64 4 8 4 C8 4.99 8 5.98 8 7 C8.66 7.33 9.32 7.66 10 8 C11 9 12 10 13 11 C12.67 11.66 12.34 12.32 12 13 C8.89990231 11.61761648 6.71736127 10.01421141 4.3125 7.625 C3.71050781 7.03976562 3.10851562 6.45453125 2.48828125 5.8515625 C0.89864987 3.87391086 0.4094574 2.4785821 0 0 Z " fill="#64AB95" transform="translate(223,340)"/>
<path d="M0 0 C2.5 1.3125 2.5 1.3125 5 3 C5 3.99 5 4.98 5 6 C5.66 6 6.32 6 7 6 C7 7.98 7 9.96 7 12 C5.82460004 11.07347299 4.65989423 10.13336613 3.5 9.1875 C2.8503125 8.66542969 2.200625 8.14335937 1.53125 7.60546875 C-0.71638954 5.2488875 0 3.16100177 0 0 Z " fill="#3C7B72" transform="translate(163,314)"/>
<path d="M0 0 C1.32 0 2.64 0 4 0 C2.31029911 3.66398299 0.12699789 6.90832572 -2.125 10.25 C-2.84945312 11.32765625 -3.57390625 12.4053125 -4.3203125 13.515625 C-4.87460938 14.33546875 -5.42890625 15.1553125 -6 16 C-7.60031344 12.79937313 -6.03173691 10.27728194 -5 7 C-4.01 7 -3.02 7 -2 7 C-1.855625 6.401875 -1.71125 5.80375 -1.5625 5.1875 C-1.1127561 3.43849596 -0.57107659 1.71322977 0 0 Z " fill="#79AE8B" transform="translate(228,256)"/>
<path d="M0 0 C0.66 0.66 1.32 1.32 2 2 C1.51472341 6.68512487 -0.21440244 11.3075129 -1.5625 15.8125 C-1.79646484 16.60076172 -2.03042969 17.38902344 -2.27148438 18.20117188 C-2.84568404 20.13470136 -3.42257333 22.06743177 -4 24 C-6 21 -6 21 -5.7578125 18.73828125 C-5.54898438 17.93777344 -5.34015625 17.13726562 -5.125 16.3125 C-4.92132813 15.50425781 -4.71765625 14.69601562 -4.5078125 13.86328125 C-4.25644531 12.94095703 -4.25644531 12.94095703 -4 12 C-3.34 12 -2.68 12 -2 12 C-1.855625 11.13375 -1.71125 10.2675 -1.5625 9.375 C-1.04166667 6.25 -0.52083333 3.125 0 0 Z " fill="#6EAC96" transform="translate(214,280)"/>
<path d="M0 0 C0 3.60299951 -0.87349036 4.5575995 -2.9375 7.4375 C-4.98177423 10.29368456 -6.37417269 12.52230139 -7 16 C-7.99 16 -8.98 16 -10 16 C-9.690625 15.278125 -9.38125 14.55625 -9.0625 13.8125 C-7.92563225 11.07935171 -7.92563225 11.07935171 -7.5625 8.375 C-6.92266582 5.67347789 -6.1903905 4.66469678 -4 3 C-3.34 3 -2.68 3 -2 3 C-2 2.34 -2 1.68 -2 1 C-1.34 0.67 -0.68 0.34 0 0 Z " fill="#C2E4B4" transform="translate(247,240)"/>
<path d="M0 0 C2.31 0 4.62 0 7 0 C6.01 0.495 6.01 0.495 5 1 C5 1.66 5 2.32 5 3 C4.34 3 3.68 3 3 3 C2.67 3.99 2.34 4.98 2 6 C1.34 6 0.68 6 0 6 C0 6.66 0 7.32 0 8 C-0.99 8.33 -1.98 8.66 -3 9 C-3.66 8.34 -4.32 7.68 -5 7 C-4.175 6.21625 -3.35 5.4325 -2.5 4.625 C0.22988506 2.36278736 0.22988506 2.36278736 0 0 Z " fill="#73AE64" transform="translate(240,240)"/>
<path d="M0 0 C3.96 0 7.92 0 12 0 C12 0.66 12 1.32 12 2 C14.64 2.33 17.28 2.66 20 3 C20 3.33 20 3.66 20 4 C12.78528371 4.35482211 6.87581298 3.1591338 0 1 C0 0.67 0 0.34 0 0 Z " fill="#6EAB92" transform="translate(244,358)"/>
<path d="M0 0 C-1.0625 1.5 -1.0625 1.5 -3 3 C-6.6875 3.1875 -6.6875 3.1875 -10 3 C-10.33 4.32 -10.66 5.64 -11 7 C-13.31 6.67 -15.62 6.34 -18 6 C-5.14285714 -2.57142857 -5.14285714 -2.57142857 0 0 Z " fill="#7DAF6F" transform="translate(314,309)"/>
<path d="M0 0 C3.96 0 7.92 0 12 0 C11.34 3.3 10.68 6.6 10 10 C9.34 10 8.68 10 8 10 C8 7.36 8 4.72 8 2 C3.85906302 1.79029441 3.85906302 1.79029441 0 3 C0 2.01 0 1.02 0 0 Z " fill="#94C141" transform="translate(272,206)"/>
<path d="M0 0 C0.66 0.33 1.32 0.66 2 1 C1.48223379 5.10447392 -0.64627444 6.95699523 -3.5625 9.75 C-4.80193359 10.94882813 -4.80193359 10.94882813 -6.06640625 12.171875 C-6.70449219 12.77515625 -7.34257812 13.3784375 -8 14 C-8.33 12.68 -8.66 11.36 -9 10 C-8.01 10 -7.02 10 -6 10 C-6 8.68 -6 7.36 -6 6 C-3 4 -3 4 0 4 C0 2.68 0 1.36 0 0 Z " fill="#8BB58C" transform="translate(354,170)"/>
<path d="M0 0 C2.99254618 1.40191353 5.5954611 3.03367489 8.25 5 C8.95640625 5.515625 9.6628125 6.03125 10.390625 6.5625 C11.18726563 7.2740625 11.18726563 7.2740625 12 8 C12 8.66 12 9.32 12 10 C11.01 10 10.02 10 9 10 C9 9.34 9 8.68 9 8 C6.03 7.505 6.03 7.505 3 7 C2.67 5.35 2.34 3.7 2 2 C1.34 2 0.68 2 0 2 C0 1.34 0 0.68 0 0 Z " fill="#9DC6A5" transform="translate(342,160)"/>
<path d="M0 0 C-0.598125 0.28875 -1.19625 0.5775 -1.8125 0.875 C-4.19327792 2.04742026 -4.19327792 2.04742026 -7 4 C-2.545 5.98 -2.545 5.98 2 8 C-2.59589675 9.14897419 -3.26171852 8.7140729 -7.25 6.5625 C-8.14203125 6.08941406 -9.0340625 5.61632812 -9.953125 5.12890625 C-10.62859375 4.75636719 -11.3040625 4.38382812 -12 4 C-12 3.34 -12 2.68 -12 2 C-7.8794254 0.00214565 -4.54805635 -0.17835515 0 0 Z " fill="#89C3AB" transform="translate(239,308)"/>
<path d="M0 0 C-0.18359375 1.890625 -0.18359375 1.890625 -1 4 C-3.28515625 5.046875 -3.28515625 5.046875 -6.0625 5.75 C-7.44115234 6.11351562 -7.44115234 6.11351562 -8.84765625 6.484375 C-9.55792969 6.65453125 -10.26820313 6.8246875 -11 7 C-11 6.01 -11 5.02 -11 4 C-9.73308493 3.32591692 -8.46129251 2.66099503 -7.1875 2 C-6.47980469 1.62875 -5.77210938 1.2575 -5.04296875 0.875 C-3 0 -3 0 0 0 Z " fill="#7EA962" transform="translate(331,344)"/>
<path d="M0 0 C0.92864118 3.43968692 1.22841931 6.42143083 1 10 C0.01 11.485 0.01 11.485 -1 13 C-1.44429438 15.04869074 -1.81294195 17.11454293 -2.125 19.1875 C-2.29257813 20.27417969 -2.46015625 21.36085938 -2.6328125 22.48046875 C-2.75398437 23.31191406 -2.87515625 24.14335937 -3 25 C-3.33 25 -3.66 25 -4 25 C-4.21908649 18.97512156 -3.49398047 13.82450494 -2 8 C-1.80921875 7.22527344 -1.6184375 6.45054687 -1.421875 5.65234375 C-0.95615457 3.76617601 -0.47925183 1.88277506 0 0 Z " fill="#92C0B3" transform="translate(222,286)"/>
<path d="M0 0 C0.33 0 0.66 0 1 0 C1.02718316 2.85423192 1.04692705 5.70820015 1.0625 8.5625 C1.07087891 9.36236328 1.07925781 10.16222656 1.08789062 10.98632812 C1.10737509 15.76002158 0.97844883 20.31698388 0 25 C-0.66 25.33 -1.32 25.66 -2 26 C-2.02689216 24.52093108 -2.04634621 23.04172517 -2.0625 21.5625 C-2.07410156 20.73878906 -2.08570313 19.91507812 -2.09765625 19.06640625 C-2 17 -2 17 -1 16 C-0.76321284 13.30764224 -0.57801975 10.63501844 -0.4375 7.9375 C-0.39431641 7.17888672 -0.35113281 6.42027344 -0.30664062 5.63867188 C-0.20026367 3.75934562 -0.09960066 1.87969756 0 0 Z " fill="#80AE5C" transform="translate(276,243)"/>
<path d="M0 0 C0.33 0 0.66 0 1 0 C1.37810444 5.04139251 0.54806876 9.60641642 -2 14 C-2.99 14.33 -3.98 14.66 -5 15 C-4.5188509 9.22621075 -2.81532819 5.04140164 0 0 Z " fill="#72A789" transform="translate(203,248)"/>
<path d="M0 0 C2.64 0.33 5.28 0.66 8 1 C8 2.65 8 4.3 8 6 C6.02 6.33 4.04 6.66 2 7 C1.34 4.69 0.68 2.38 0 0 Z " fill="#258C68" transform="translate(230,343)"/>
<path d="M0 0 C0.70125 0.185625 1.4025 0.37125 2.125 0.5625 C5.33888698 1.05156976 7.83560336 0.66231558 11 0 C6.18421053 4.97631579 6.18421053 4.97631579 1.875 5.0625 C0.92625 5.041875 -0.0225 5.02125 -1 5 C-0.67 3.35 -0.34 1.7 0 0 Z " fill="#88B956" transform="translate(345,330)"/>
<path d="M0 0 C1.32 0 2.64 0 4 0 C4.91058531 3.07322544 5.08886184 5.80097361 5 9 C4.01 8.67 3.02 8.34 2 8 C2 7.01 2 6.02 2 5 C1.01 4.67 0.02 4.34 -1 4 C-0.67 2.68 -0.34 1.36 0 0 Z " fill="#228169" transform="translate(224,336)"/>
<path d="M0 0 C0.66 0 1.32 0 2 0 C2.33 2.31 2.66 4.62 3 7 C2.01 7.33 1.02 7.66 0 8 C-0.33 8.99 -0.66 9.98 -1 11 C-1.66 11 -2.32 11 -3 11 C-2.43902568 7.6341541 -1.56149386 5.01888813 0 2 C0 1.34 0 0.68 0 0 Z " fill="#7BB383" transform="translate(328,192)"/>
<path d="M0 0 C4.67105792 1.55701931 8.08705685 4.08447373 12 7 C9.92446352 7.5534764 8.15634036 8 6 8 C6 7.34 6 6.68 6 6 C4.68 5.67 3.36 5.34 2 5 C2.33 4.34 2.66 3.68 3 3 C2.34 3 1.68 3 1 3 C0.67 2.01 0.34 1.02 0 0 Z " fill="#91BEA1" transform="translate(330,152)"/>
<path d="M0 0 C7.42857143 -0.28571429 7.42857143 -0.28571429 11 2 C11 2.99 11 3.98 11 5 C6.545 4.01 6.545 4.01 2 3 C2 2.34 2 1.68 2 1 C1.34 0.67 0.68 0.34 0 0 Z " fill="#669F81" transform="translate(281,178)"/>
<path d="M0 0 C3.10671743 0.78626799 6.0906958 1.6441041 9 3 C10.4375 5.5625 10.4375 5.5625 11 8 C11.66 8.66 12.32 9.32 13 10 C9.11645706 9.42993865 7.10304001 7.61062485 4.25 5 C3.45078125 4.278125 2.6515625 3.55625 1.828125 2.8125 C1.22484375 2.214375 0.6215625 1.61625 0 1 C0 0.67 0 0.34 0 0 Z " fill="#8FB895" transform="translate(312,194)"/>
<path d="M0 0 C6.93 0 13.86 0 21 0 C16.91852898 2.04073551 13.80764808 2.45397927 9.375 2.6875 C8.3540625 2.75807617 8.3540625 2.75807617 7.3125 2.83007812 C2.26825672 3.13412836 2.26825672 3.13412836 0 2 C0 1.34 0 0.68 0 0 Z " fill="#7EB082" transform="translate(280,358)"/>
<path d="M0 0 C0.33 0 0.66 0 1 0 C1.25 7.625 1.25 7.625 -1 11 C-1.66 11 -2.32 11 -3 11 C-3.33 11.66 -3.66 12.32 -4 13 C-3.40895235 8.15340923 -2.02055843 4.39251833 0 0 Z " fill="#A3CBB3" transform="translate(227,273)"/>
<path d="M0 0 C0.66 0 1.32 0 2 0 C2 3.96 2 7.92 2 12 C1.01 11.34 0.02 10.68 -1 10 C-0.67 6.7 -0.34 3.4 0 0 Z " fill="#15886B" transform="translate(222,320)"/>
<path d="M0 0 C2.475 0.495 2.475 0.495 5 1 C5 2.32 5 3.64 5 5 C4.34 5 3.68 5 3 5 C3 5.66 3 6.32 3 7 C2.01 7 1.02 7 0 7 C0 4.69 0 2.38 0 0 Z " fill="#117E73" transform="translate(192,208)"/>
<path d="M0 0 C1.32 0.33 2.64 0.66 4 1 C-2.28571429 6.57142857 -2.28571429 6.57142857 -6 7 C-5.67 5.35 -5.34 3.7 -5 2 C-3.35 2 -1.7 2 0 2 C0 1.34 0 0.68 0 0 Z " fill="#9CBF84" transform="translate(336,341)"/>
<path d="M0 0 C1.32 0 2.64 0 4 0 C4.33 2.31 4.66 4.62 5 7 C2.525 6.01 2.525 6.01 0 5 C0 3.35 0 1.7 0 0 Z " fill="#2A7762" transform="translate(204,330)"/>
<path d="M0 0 C0.66 0 1.32 0 2 0 C2.125 5.75 2.125 5.75 1 8 C-0.65 8 -2.3 8 -4 8 C-3.67 7.01 -3.34 6.02 -3 5 C-2.34 5 -1.68 5 -1 5 C-0.67 3.35 -0.34 1.7 0 0 Z " fill="#2B7E6C" transform="translate(188,264)"/>
<path d="M0 0 C1.85776765 3.13498292 2.20140476 5.37471432 2 9 C0.02 9.99 0.02 9.99 -2 11 C-1.85957123 9.35369672 -1.71250671 7.70795821 -1.5625 6.0625 C-1.48128906 5.14597656 -1.40007812 4.22945312 -1.31640625 3.28515625 C-1 1 -1 1 0 0 Z " fill="#568C84" transform="translate(142,221)"/>
<path d="M0 0 C2.97 0 5.94 0 9 0 C9.33 1.65 9.66 3.3 10 5 C5.49378854 3.89470285 3.34905453 3.34905453 0 0 Z " fill="#59A068" transform="translate(311,192)"/>
<path d="M0 0 C5.41538462 -0.36923077 5.41538462 -0.36923077 8.375 1.5 C8.91125 1.995 9.4475 2.49 10 3 C5.08632301 4.09192822 1.48400145 4.56228655 -3 2 C-2.01 2 -1.02 2 0 2 C0 1.34 0 0.68 0 0 Z " fill="#4D9C74" transform="translate(316,148)"/>
<path d="M0 0 C-0.66 0.66 -1.32 1.32 -2 2 C-2.33 2.99 -2.66 3.98 -3 5 C-6.37992169 4.46228519 -9.68737889 3.85696068 -13 3 C-11.40084119 2.30093058 -9.79544955 1.61610532 -8.1875 0.9375 C-7.29417969 0.55464844 -6.40085938 0.17179688 -5.48046875 -0.22265625 C-3 -1 -3 -1 0 0 Z " fill="#6BB3AB" transform="translate(216,143)"/>
<path d="M0 0 C-1.65 0.33 -3.3 0.66 -5 1 C-5.2165625 1.928125 -5.2165625 1.928125 -5.4375 2.875 C-6 5 -6 5 -7 7 C-7.99 6.67 -8.98 6.34 -10 6 C-10.33 5.01 -10.66 4.02 -11 3 C-9.68 2.67 -8.36 2.34 -7 2 C-7 1.34 -7 0.68 -7 0 C-3.86650268 -1.04449911 -3.01031744 -0.93423645 0 0 Z " fill="#4B998D" transform="translate(223,141)"/>
<path d="M0 0 C0.66 0 1.32 0 2 0 C0.54955729 4.10958767 -1.51110752 7.43258745 -4 11 C-5 9 -5 9 -4.25 5.9375 C-3.8375 4.968125 -3.425 3.99875 -3 3 C-2.01 2.67 -1.02 2.34 0 2 C0 1.34 0 0.68 0 0 Z " fill="#83AF82" transform="translate(270,279)"/>
<path d="M0 0 C0.33 0 0.66 0 1 0 C0.33333333 4.66666667 -0.33333333 9.33333333 -1 14 C-1.66 14 -2.32 14 -3 14 C-3 11.03 -3 8.06 -3 5 C-2.01 4.67 -1.02 4.34 0 4 C0 2.68 0 1.36 0 0 Z " fill="#418864" transform="translate(201,258)"/>
<path d="M0 0 C0.33 0 0.66 0 1 0 C1.08078641 2.12438339 1.13909141 4.2496323 1.1875 6.375 C1.22230469 7.55835938 1.25710938 8.74171875 1.29296875 9.9609375 C1.19628906 10.96382812 1.09960938 11.96671875 1 13 C0.01 13.66 -0.98 14.32 -2 15 C-1.85816304 13.24967156 -1.71136571 11.49974466 -1.5625 9.75 C-1.48128906 8.77546875 -1.40007812 7.8009375 -1.31640625 6.796875 C-1.04925416 4.43538247 -0.64628032 2.28098935 0 0 Z " fill="#80AF56" transform="translate(291,240)"/>
<path d="M0 0 C-0.66 1.32 -1.32 2.64 -2 4 C-2.66 4 -3.32 4 -4 4 C-4.103125 4.61875 -4.20625 5.2375 -4.3125 5.875 C-5 8 -5 8 -8 10 C-7.34 7.03 -6.68 4.06 -6 1 C-2 0 -2 0 0 0 Z " fill="#83BE64" transform="translate(254,235)"/>
<path d="M0 0 C0.99 0.33 1.98 0.66 3 1 C2.01 2.485 2.01 2.485 1 4 C0.61500109 5.65549531 0.27206865 7.3222433 0 9 C-0.99 8.34 -1.98 7.68 -3 7 C-3.66 6.67 -4.32 6.34 -5 6 C-4.67 5.34 -4.34 4.68 -4 4 C-3.34 4 -2.68 4 -2 4 C-1.34 2.68 -0.68 1.36 0 0 Z " fill="#1D7365" transform="translate(168,174)"/>
<path d="M0 0 C0.33 0 0.66 0 1 0 C1.33 6.6 1.66 13.2 2 20 C1.67 19.34 1.34 18.68 1 18 C0.01 18 -0.98 18 -2 18 C-2 17.34 -2 16.68 -2 16 C-1.34 16 -0.68 16 0 16 C0 10.72 0 5.44 0 0 Z " fill="#79B3A4" transform="translate(207,312)"/>
<path d="M0 0 C1.32 0.66 2.64 1.32 4 2 C2.87926138 2.83905565 1.75325453 3.67107831 0.625 4.5 C-0.00148437 4.9640625 -0.62796875 5.428125 -1.2734375 5.90625 C-3 7 -3 7 -5 7 C-4.1875 4.5625 -4.1875 4.5625 -3 2 C-2.01 1.67 -1.02 1.34 0 1 C0 0.67 0 0.34 0 0 Z " fill="#6FAB87" transform="translate(253,297)"/>
<path d="M0 0 C0.33 0.99 0.66 1.98 1 3 C-0.40445835 5.2636564 -2.1967913 7.0208685 -4 9 C-4.66 8.67 -5.32 8.34 -6 8 C-5.8125 5.6875 -5.8125 5.6875 -5 3 C-2.4375 1.1875 -2.4375 1.1875 0 0 Z " fill="#61A558" transform="translate(270,276)"/>
<path d="M0 0 C2.45634954 4.73724554 4.31057116 8.56500474 4 14 C3.34 14 2.68 14 2 14 C2 12.02 2 10.04 2 8 C1.01 8 0.02 8 -1 8 C-0.67 5.36 -0.34 2.72 0 0 Z " fill="#76AD9E" transform="translate(190,264)"/>
<path d="M0 0 C0.99 0 1.98 0 3 0 C2.34 4.95 1.68 9.9 1 15 C0.67 15 0.34 15 0 15 C0 10.05 0 5.1 0 0 Z " fill="#C7DF9A" transform="translate(280,216)"/>
<path d="M0 0 C1.65 0 3.3 0 5 0 C-4.1 7 -4.1 7 -7 7 C-7 4 -7 4 -5 2 C-2.375 1.875 -2.375 1.875 0 2 C0 1.34 0 0.68 0 0 Z " fill="#619D94" transform="translate(224,184)"/>
<path d="M0 0 C0 0.66 0 1.32 0 2 C-0.99 2 -1.98 2 -3 2 C-2.67 2.99 -2.34 3.98 -2 5 C-3.65 5.33 -5.3 5.66 -7 6 C-7 6.66 -7 7.32 -7 8 C-7.66 8 -8.32 8 -9 8 C-7.38794515 3.02949753 -5.53380518 0 0 0 Z " fill="#22766A" transform="translate(183,162)"/>
<path d="M0 0 C0.66 0 1.32 0 2 0 C2.33 1.32 2.66 2.64 3 4 C3.99 4 4.98 4 6 4 C6 4.66 6 5.32 6 6 C5.34 6 4.68 6 4 6 C3.67 6.66 3.34 7.32 3 8 C2.01 8 1.02 8 0 8 C0 5.36 0 2.72 0 0 Z " fill="#1F8165" transform="translate(193,280)"/>
<path d="M0 0 C0.99 0.33 1.98 0.66 3 1 C2.835 1.598125 2.67 2.19625 2.5 2.8125 C1.8885876 5.11344336 1.8885876 5.11344336 2 8 C0.02 8 -1.96 8 -4 8 C-2.68 5.36 -1.36 2.72 0 0 Z " fill="#5BA854" transform="translate(246,248)"/>
<path d="M0 0 C1.65 0 3.3 0 5 0 C4.625 2.9375 4.625 2.9375 4 6 C3.01 6.495 3.01 6.495 2 7 C0.5393715 4.35261084 0 3.10551666 0 0 Z " fill="#0C8170" transform="translate(184,224)"/>
<path d="M0 0 C0.33 1.32 0.66 2.64 1 4 C-2.32534757 5.10844919 -4.62182575 4.84454356 -8 4 C-5.53721199 1.53721199 -3.29323018 1.00228745 0 0 Z " fill="#82BB3E" transform="translate(256,211)"/>
<path d="M0 0 C-3.28491373 2.18994248 -4.83095639 2.35277339 -8.6875 2.625 C-10.17830078 2.73714844 -10.17830078 2.73714844 -11.69921875 2.8515625 C-12.83810547 2.92503906 -12.83810547 2.92503906 -14 3 C-14 2.34 -14 1.68 -14 1 C-8.80451575 -1.20808081 -5.41735797 -0.93402724 0 0 Z " fill="#20917E" transform="translate(240,141)"/>
<path d="M0 0 C2.31 0 4.62 0 7 0 C7.33 0.66 7.66 1.32 8 2 C8.66 2 9.32 2 10 2 C10 2.99 10 3.98 10 5 C6.05140217 4.4359146 3.29120954 3.2568294 0 1 C0 0.67 0 0.34 0 0 Z " fill="#63A094" transform="translate(197,347)"/>
<path d="M0 0 C2.64 0.33 5.28 0.66 8 1 C8.33 2.65 8.66 4.3 9 6 C5.06326356 4.68775452 2.77280706 3.08089673 0 0 Z " fill="#518D7D" transform="translate(186,340)"/>
<path d="M0 0 C-0.66 1.32 -1.32 2.64 -2 4 C-2.66 3.67 -3.32 3.34 -4 3 C-4 3.66 -4 4.32 -4 5 C-5.98 5.33 -7.96 5.66 -10 6 C-4.4 0 -4.4 0 0 0 Z " fill="#80B2AB" transform="translate(196,151)"/>
<path d="M0 0 C2.97 0 5.94 0 9 0 C9.33 1.32 9.66 2.64 10 4 C8.68 4 7.36 4 6 4 C6 3.34 6 2.68 6 2 C3.03 1.505 3.03 1.505 0 1 C0 0.67 0 0.34 0 0 Z " fill="#1C8C63" transform="translate(242,352)"/>
<path d="M0 0 C-0.33 0.99 -0.66 1.98 -1 3 C-1.66 3 -2.32 3 -3 3 C-3 3.66 -3 4.32 -3 5 C-4.32 5.33 -5.64 5.66 -7 6 C-7.33 5.01 -7.66 4.02 -8 3 C-3.375 0 -3.375 0 0 0 Z " fill="#87B35D" transform="translate(251,211)"/>
<path d="M0 0 C1.4606285 2.64738916 2 3.89448334 2 7 C0.02 7.33 -1.96 7.66 -4 8 C-2.87548273 5.0280615 -1.77706209 2.66559313 0 0 Z " fill="#5F9E91" transform="translate(155,189)"/>
<path d="M0 0 C1.67542976 0.28604898 3.34385343 0.61781233 5 1 C5 1.66 5 2.32 5 3 C5.99 3 6.98 3 8 3 C8 4.32 8 5.64 8 7 C6 7 6 7 4.625 5.6875 C4.08875 5.130625 3.5525 4.57375 3 4 C1.68036291 2.98199424 0.34990354 1.97751635 -1 1 C-0.67 0.67 -0.34 0.34 0 0 Z " fill="#609F6C" transform="translate(346,167)"/>
<path d="M0 0 C0.66 0 1.32 0 2 0 C1.34 1.98 0.68 3.96 0 6 C-2.64 6.33 -5.28 6.66 -8 7 C-6.68 6.34 -5.36 5.68 -4 5 C-4 4.34 -4 3.68 -4 3 C-3.01 2.67 -2.02 2.34 -1 2 C-0.67 1.34 -0.34 0.68 0 0 Z " fill="#287D73" transform="translate(196,151)"/>
<path d="M0 0 C1.32 0 2.64 0 4 0 C4 0.66 4 1.32 4 2 C6.64 2 9.28 2 12 2 C11.01 2.33 10.02 2.66 9 3 C9 3.66 9 4.32 9 5 C5.22454612 3.90931332 2.52956528 3.0916909 0 0 Z " fill="#66A591" transform="translate(235,353)"/>
<path d="M0 0 C1.32 0.66 2.64 1.32 4 2 C3.67 2.99 3.34 3.98 3 5 C0.69 5 -1.62 5 -4 5 C-2.68 3.35 -1.36 1.7 0 0 Z " fill="#2C9064" transform="translate(228,315)"/>
<path d="M0 0 C0.33 0 0.66 0 1 0 C1.125 5.75 1.125 5.75 0 8 C-0.66 8 -1.32 8 -2 8 C-2 8.66 -2 9.32 -2 10 C-2.66 10 -3.32 10 -4 10 C-3.625 7.5625 -3.625 7.5625 -3 5 C-2.34 4.67 -1.68 4.34 -1 4 C-0.34786708 1.97536745 -0.34786708 1.97536745 0 0 Z " fill="#42917D" transform="translate(208,304)"/>
<path d="M0 0 C0.66 0 1.32 0 2 0 C0.84414715 3.91211733 -0.35534962 6.8745041 -3 10 C-3.2295711 6.63295715 -3.33943529 4.58629732 -1.625 1.625 C-1.08875 1.08875 -0.5525 0.5525 0 0 Z " fill="#6CA286" transform="translate(219,272)"/>
<path d="M0 0 C-0.66 0 -1.32 0 -2 0 C-2 0.66 -2 1.32 -2 2 C-4.64 2.33 -7.28 2.66 -10 3 C-10 2.01 -10 1.02 -10 0 C-3.375 -1.125 -3.375 -1.125 0 0 Z " fill="#17816E" transform="translate(226,184)"/>
<path d="M0 0 C0.66 0.66 1.32 1.32 2 2 C2.66 2.33 3.32 2.66 4 3 C3.67 3.66 3.34 4.32 3 5 C0.67843403 5.40729228 -1.6568787 5.74438677 -4 6 C-1.125 1.125 -1.125 1.125 0 0 Z " fill="#519587" transform="translate(163,178)"/>
<path d="M0 0 C1.5 1.375 1.5 1.375 3 3 C3 3.66 3 4.32 3 5 C3.99 5.33 4.98 5.66 6 6 C5.01 6.495 5.01 6.495 4 7 C1.96855359 6.06553465 -0.03533587 5.06775224 -2 4 C-2 3.34 -2 2.68 -2 2 C-1.34 2 -0.68 2 0 2 C0 1.34 0 0.68 0 0 Z " fill="#2F6F61" transform="translate(213,349)"/>
<path d="M0 0 C0.99 0 1.98 0 3 0 C3.66 0.99 4.32 1.98 5 3 C4.34 3.66 3.68 4.32 3 5 C1.66666667 5 0.33333333 5 -1 5 C-1.33 4.01 -1.66 3.02 -2 2 C-1.34 1.34 -0.68 0.68 0 0 Z " fill="#24685B" transform="translate(163,312)"/>
<path d="M0 0 C0.66 0.99 1.32 1.98 2 3 C1.125 5.6875 1.125 5.6875 0 8 C-0.99 8 -1.98 8 -3 8 C-2.690625 7.236875 -2.38125 6.47375 -2.0625 5.6875 C-1.32106407 3.81210323 -0.63771783 1.91315348 0 0 Z " fill="#2B896D" transform="translate(223,293)"/>
<path d="M0 0 C0.99 0 1.98 0 3 0 C3 1.98 3 3.96 3 6 C2.01 6 1.02 6 0 6 C-0.38218767 4.34385343 -0.71395102 2.67542976 -1 1 C-0.67 0.67 -0.34 0.34 0 0 Z " fill="#226D65" transform="translate(149,280)"/>
<path d="M0 0 C1.98 0 3.96 0 6 0 C4.35830472 2.02054804 2.69088222 4.02043058 1 6 C0.67 6 0.34 6 0 6 C0 4.02 0 2.04 0 0 Z " fill="#92BE8B" transform="translate(234,248)"/>
<path d="M0 0 C2.25 0.25 2.25 0.25 4 1 C4 1.66 4 2.32 4 3 C1.36 3.33 -1.28 3.66 -4 4 C-2.25 1.9375 -2.25 1.9375 0 0 Z " fill="#A2C895" transform="translate(228,220)"/>
<path d="M0 0 C0.78375 0.04125 1.5675 0.0825 2.375 0.125 C1.09437515 1.8324998 -0.24267557 3.49873596 -1.625 5.125 C-2.285 5.125 -2.945 5.125 -3.625 5.125 C-3.955 4.135 -4.285 3.145 -4.625 2.125 C-2.625 0.125 -2.625 0.125 0 0 Z " fill="#8AB78D" transform="translate(342.625,183.875)"/>
<path d="M0 0 C0.66 0.33 1.32 0.66 2 1 C2 1.66 2 2.32 2 3 C1.34 3 0.68 3 0 3 C0 3.66 0 4.32 0 5 C-1.65 4.67 -3.3 4.34 -5 4 C-3.36587557 2.29159719 -2.13093906 1.06546953 0 0 Z " fill="#1C7162" transform="translate(182,328)"/>
<path d="M0 0 C-0.33 0.99 -0.66 1.98 -1 3 C-4.5625 4.1875 -4.5625 4.1875 -8 5 C-8 4.01 -8 3.02 -8 2 C-5.09399739 0.74335022 -3.20395416 0 0 0 Z " fill="#66A25E" transform="translate(299,315)"/>
<path d="M0 0 C0.33 0.66 0.66 1.32 1 2 C1.66 2.33 2.32 2.66 3 3 C2.01 4.485 2.01 4.485 1 6 C0.34 6 -0.32 6 -1 6 C-1.33 6.66 -1.66 7.32 -2 8 C-2 6.02 -2 4.04 -2 2 C-1.34 2 -0.68 2 0 2 C0 1.34 0 0.68 0 0 Z " fill="#469366" transform="translate(206,246)"/>
<path d="M0 0 C1.2065625 0.0309375 1.2065625 0.0309375 2.4375 0.0625 C-2.3125 4.9375 -2.3125 4.9375 -4.5625 6.0625 C-3.48963568 0.08511307 -3.48963568 0.08511307 0 0 Z " fill="#56978F" transform="translate(213.5625,191.9375)"/>
<path d="M0 0 C2.475 0.99 2.475 0.99 5 2 C5 2.66 5 3.32 5 4 C5.66 4 6.32 4 7 4 C6.67 4.66 6.34 5.32 6 6 C3.5625 5.25 3.5625 5.25 1 4 C0.1875 1.875 0.1875 1.875 0 0 Z " fill="#5E9774" transform="translate(326,151)"/>
<path d="M0 0 C-2.31 0.66 -4.62 1.32 -7 2 C-7.66 1.01 -8.32 0.02 -9 -1 C-5.22102349 -2.0497157 -3.35080929 -2.10976881 0 0 Z " fill="#44877A" transform="translate(191,338)"/>
<path d="M0 0 C2.475 0.495 2.475 0.495 5 1 C4.1875 2.9375 4.1875 2.9375 3 5 C2.01 5.33 1.02 5.66 0 6 C0 4.02 0 2.04 0 0 Z " fill="#4FA25A" transform="translate(256,288)"/>
<path d="M0 0 C-1.20381448 2.49361571 -2.45428722 4.68143083 -4 7 C-4.66 6.67 -5.32 6.34 -6 6 C-3.84615385 0 -3.84615385 0 0 0 Z " fill="#619966" transform="translate(240,257)"/>
<path d="M0 0 C0.33 0 0.66 0 1 0 C1 1.98 1 3.96 1 6 C-0.98 6.99 -0.98 6.99 -3 8 C-1.125 1.125 -1.125 1.125 0 0 Z " fill="#71B193" transform="translate(203,248)"/>
<path d="M0 0 C0.66 0.33 1.32 0.66 2 1 C1.6875 2.9375 1.6875 2.9375 1 5 C0.01 5.33 -0.98 5.66 -2 6 C-2.66 5.34 -3.32 4.68 -4 4 C-2.68 2.68 -1.36 1.36 0 0 Z " fill="#69A25D" transform="translate(239,243)"/>
<path d="M0 0 C3.63 0.33 7.26 0.66 11 1 C10.01 1.495 10.01 1.495 9 2 C9 2.66 9 3.32 9 4 C6.03 3.01 3.06 2.02 0 1 C0 0.67 0 0.34 0 0 Z " fill="#7AB997" transform="translate(292,183)"/>
<path d="M0 0 C0.66 0 1.32 0 2 0 C2.66 1.65 3.32 3.3 4 5 C2.35 5 0.7 5 -1 5 C-1.33 4.34 -1.66 3.68 -2 3 C-1.34 3 -0.68 3 0 3 C0 2.01 0 1.02 0 0 Z " fill="#30976A" transform="translate(252,353)"/>
<path d="M0 0 C1.65 0.33 3.3 0.66 5 1 C4.67 1.99 4.34 2.98 4 4 C2.35 4 0.7 4 -1 4 C-0.67 2.68 -0.34 1.36 0 0 Z " fill="#0A7F6A" transform="translate(192,335)"/>
<path d="M0 0 C1.98 0.66 3.96 1.32 6 2 C5.01 2.495 5.01 2.495 4 3 C4 3.66 4 4.32 4 5 C2.0625 4.625 2.0625 4.625 0 4 C-0.33 3.34 -0.66 2.68 -1 2 C-0.67 1.34 -0.34 0.68 0 0 Z " fill="#2D756B" transform="translate(173,326)"/>
<path d="M0 0 C0.66 0.33 1.32 0.66 2 1 C1.38722388 3.96175123 0.74627478 5.38058783 -1 8 C-1.625 5.6875 -1.625 5.6875 -2 3 C-1.34 2.01 -0.68 1.02 0 0 Z " fill="#4E9D58" transform="translate(238,260)"/>
<path d="M0 0 C1.32 0 2.64 0 4 0 C3.34 1.98 2.68 3.96 2 6 C1.01 6 0.02 6 -1 6 C-0.67 4.02 -0.34 2.04 0 0 Z " fill="#70AF50" transform="translate(236,218)"/>
</svg>
